M48
; DRILL file {KiCad 8.0.0} date 2024-03-12T13:11:14+0300
; FORMAT={-:-/ absolute / inch / decimal}
; #@! TF.CreationDate,2024-03-12T13:11:14+03:00
; #@! TF.GenerationSoftware,Kicad,Pcbnew,8.0.0
; #@! TF.FileFunction,Plated,1,2,PTH
FMAT,2
INCH
; #@! TA.AperFunction,Plated,PTH,ViaDrill
T1C0.0118
; #@! TA.AperFunction,Plated,PTH,ViaDrill
T2C0.0157
; #@! TA.AperFunction,Plated,PTH,ComponentDrill
T3C0.0295
; #@! TA.AperFunction,Plated,PTH,ComponentDrill
T4C0.0472
%
G90
G05
T1
X3.3248Y-4.0197
X3.6181Y-3.2854
X3.6378Y-2.3228
X3.6378Y-3.5256
X3.6378Y-3.7736
X3.6417Y-2.5669
X3.6437Y-2.815
X3.6457Y-3.0492
X3.7972Y-3.5335
X3.8189Y-3.3406
X3.8602Y-2.8504
X3.8602Y-2.9626
X3.8602Y-3.0709
X3.8996Y-3.5787
X3.9665Y-2.9075
X3.9764Y-3.4449
X3.9783Y-3.3937
X4.0098Y-2.8996
X4.0581Y-3.0583
X4.062Y-3.3691
X4.0748Y-2.9803
X4.0925Y-3.4921
X4.0965Y-2.876
X4.0965Y-2.9271
X4.1024Y-3.1378
X4.124Y-3.3331
X4.1417Y-3.2067
X4.2303Y-2.6791
X4.248Y-3.1358
X4.2657Y-3.0335
X4.2795Y-3.2539
X4.2815Y-3.374
X4.2835Y-3.4941
X4.4173Y-2.9783
X4.5689Y-3.8543
X4.6142Y-3.6791
X4.6201Y-3.4429
X4.624Y-3.2008
X4.628Y-2.7283
X4.6319Y-2.4921
X4.6319Y-2.9665
X4.8051Y-2.5531
X5.2461Y-2.8701
T2
X3.4764Y-3.3091
X3.4783Y-2.3602
X3.4783Y-3.0709
X3.4783Y-4.0354
X3.4823Y-2.5965
X3.4823Y-3.7874
X3.4862Y-2.8346
X3.4862Y-3.5492
X4.9685Y-4.0315
X4.9744Y-2.3583
X4.9783Y-3.5472
X4.9803Y-2.8406
X4.9803Y-3.7894
X4.9823Y-3.3071
X4.9862Y-3.0709
X5.1969Y-2.5965
X5.1988Y-2.3543
T3
X3.8209Y-4.0748
X3.8996Y-4.0748
X3.9783Y-4.0748
X3.9862Y-2.4705
X4.0571Y-4.0748
X4.065Y-2.4705
X4.1437Y-2.4705
X4.2224Y-2.4705
T4
X2.8996Y-2.7465
X2.8996Y-2.8965
X2.8996Y-3.0465
X2.8996Y-3.1965
X2.8996Y-3.3465
X2.8996Y-3.4965
X2.8996Y-3.6465
X2.8996Y-3.7965
X4.3642Y-4.0755
X4.5142Y-4.0755
X5.4515Y-2.7228
X5.4515Y-2.8728
X5.4515Y-3.0228
X5.4515Y-3.1728
X5.4515Y-3.3228
X5.4515Y-3.4728
X5.4515Y-3.6228
X5.4515Y-3.7728
M30
