G04 #@! TF.GenerationSoftware,KiCad,Pcbnew,8.0.0*
G04 #@! TF.CreationDate,2024-03-12T13:11:18+03:00*
G04 #@! TF.ProjectId,industrial_mcp23017_input_device_v02,696e6475-7374-4726-9961-6c5f6d637032,rev?*
G04 #@! TF.SameCoordinates,Original*
G04 #@! TF.FileFunction,Copper,L2,Bot*
G04 #@! TF.FilePolarity,Positive*
%FSLAX46Y46*%
G04 Gerber Fmt 4.6, Leading zero omitted, Abs format (unit mm)*
G04 Created by KiCad (PCBNEW 8.0.0) date 2024-03-12 13:11:18*
%MOMM*%
%LPD*%
G01*
G04 APERTURE LIST*
G04 Aperture macros list*
%AMRoundRect*
0 Rectangle with rounded corners*
0 $1 Rounding radius*
0 $2 $3 $4 $5 $6 $7 $8 $9 X,Y pos of 4 corners*
0 Add a 4 corners polygon primitive as box body*
4,1,4,$2,$3,$4,$5,$6,$7,$8,$9,$2,$3,0*
0 Add four circle primitives for the rounded corners*
1,1,$1+$1,$2,$3*
1,1,$1+$1,$4,$5*
1,1,$1+$1,$6,$7*
1,1,$1+$1,$8,$9*
0 Add four rect primitives between the rounded corners*
20,1,$1+$1,$2,$3,$4,$5,0*
20,1,$1+$1,$4,$5,$6,$7,0*
20,1,$1+$1,$6,$7,$8,$9,0*
20,1,$1+$1,$8,$9,$2,$3,0*%
G04 Aperture macros list end*
G04 #@! TA.AperFunction,ComponentPad*
%ADD10RoundRect,0.250000X0.350000X0.625000X-0.350000X0.625000X-0.350000X-0.625000X0.350000X-0.625000X0*%
G04 #@! TD*
G04 #@! TA.AperFunction,ComponentPad*
%ADD11O,1.200000X1.750000*%
G04 #@! TD*
G04 #@! TA.AperFunction,ComponentPad*
%ADD12RoundRect,0.250000X-0.350000X-0.625000X0.350000X-0.625000X0.350000X0.625000X-0.350000X0.625000X0*%
G04 #@! TD*
G04 #@! TA.AperFunction,ComponentPad*
%ADD13RoundRect,0.250000X1.550000X-0.650000X1.550000X0.650000X-1.550000X0.650000X-1.550000X-0.650000X0*%
G04 #@! TD*
G04 #@! TA.AperFunction,ComponentPad*
%ADD14O,3.600000X1.800000*%
G04 #@! TD*
G04 #@! TA.AperFunction,ComponentPad*
%ADD15RoundRect,0.250000X-1.550000X0.650000X-1.550000X-0.650000X1.550000X-0.650000X1.550000X0.650000X0*%
G04 #@! TD*
G04 #@! TA.AperFunction,ComponentPad*
%ADD16RoundRect,0.250000X-0.650000X-1.550000X0.650000X-1.550000X0.650000X1.550000X-0.650000X1.550000X0*%
G04 #@! TD*
G04 #@! TA.AperFunction,ComponentPad*
%ADD17O,1.800000X3.600000*%
G04 #@! TD*
G04 #@! TA.AperFunction,ViaPad*
%ADD18C,0.600000*%
G04 #@! TD*
G04 #@! TA.AperFunction,ViaPad*
%ADD19C,0.800000*%
G04 #@! TD*
G04 #@! TA.AperFunction,Conductor*
%ADD20C,0.508000*%
G04 #@! TD*
G04 #@! TA.AperFunction,Conductor*
%ADD21C,0.304800*%
G04 #@! TD*
G04 #@! TA.AperFunction,Conductor*
%ADD22C,0.381000*%
G04 #@! TD*
G04 #@! TA.AperFunction,Conductor*
%ADD23C,0.203200*%
G04 #@! TD*
G04 #@! TA.AperFunction,Conductor*
%ADD24C,0.800000*%
G04 #@! TD*
G04 APERTURE END LIST*
D10*
X107250000Y-62750000D03*
D11*
X105250000Y-62750000D03*
X103250000Y-62750000D03*
X101250000Y-62750000D03*
D12*
X97050000Y-103500000D03*
D11*
X99050000Y-103500000D03*
X101050000Y-103500000D03*
X103050000Y-103500000D03*
D13*
X138467500Y-95830000D03*
D14*
X138467500Y-92020000D03*
X138467500Y-88210000D03*
X138467500Y-84400000D03*
X138467500Y-80590000D03*
X138467500Y-76780000D03*
X138467500Y-72970000D03*
X138467500Y-69160000D03*
D15*
X73650000Y-69760000D03*
D14*
X73650000Y-73570000D03*
X73650000Y-77380000D03*
X73650000Y-81190000D03*
X73650000Y-85000000D03*
X73650000Y-88810000D03*
X73650000Y-92620000D03*
X73650000Y-96430000D03*
D16*
X110850000Y-103517500D03*
D17*
X114660000Y-103517500D03*
D18*
X103174604Y-85575396D03*
X107450000Y-68050000D03*
X103950000Y-88700000D03*
X122050000Y-64850000D03*
X103075125Y-77680653D03*
X108350000Y-77050000D03*
X107900000Y-79650000D03*
X99050000Y-90900000D03*
X101850000Y-73650000D03*
X105200000Y-81450000D03*
X104750000Y-84661400D03*
X117450000Y-81300000D03*
X92400000Y-89550000D03*
X92500000Y-65200000D03*
D19*
X88550000Y-72000000D03*
D18*
X98050000Y-78000000D03*
X92550000Y-71500000D03*
D19*
X88350000Y-102500000D03*
X88300000Y-84050000D03*
X132050000Y-59800000D03*
D18*
X117550000Y-69300000D03*
X133250000Y-72900000D03*
X98050000Y-75250000D03*
D19*
X126450000Y-90100000D03*
D18*
X108700000Y-82650000D03*
X92600000Y-77450000D03*
X104200000Y-79700000D03*
X91900000Y-83450000D03*
D19*
X88450000Y-65950000D03*
D18*
X92400000Y-95850000D03*
X116050000Y-97900000D03*
D19*
X126500000Y-72150000D03*
X126500000Y-96250000D03*
X88550000Y-90150000D03*
D18*
X117650000Y-63300000D03*
X98050000Y-72400000D03*
X97000000Y-84850000D03*
X117200000Y-93450000D03*
D19*
X88350000Y-78000000D03*
X88350000Y-59950000D03*
D18*
X117650000Y-75350000D03*
D19*
X132000000Y-65950000D03*
X126650000Y-78000000D03*
D18*
X117350000Y-87450000D03*
X108800000Y-88750000D03*
X96450000Y-89750000D03*
D19*
X126550000Y-84000000D03*
D18*
X108750000Y-85700000D03*
X92400000Y-59000000D03*
D19*
X126350000Y-59900000D03*
X126200000Y-102400000D03*
X88450000Y-96200000D03*
D18*
X112200000Y-75650000D03*
X101000000Y-87500000D03*
X104050000Y-73050000D03*
X104050000Y-74347600D03*
X101050000Y-86200000D03*
X84450000Y-102100000D03*
X100750000Y-73850000D03*
X103500000Y-75700000D03*
D20*
X101400000Y-72850000D02*
X99950000Y-72850000D01*
D21*
X103174604Y-85075396D02*
X103588600Y-84661400D01*
D20*
X99050000Y-89600000D02*
X99050000Y-90900000D01*
X101850000Y-73650000D02*
X101850000Y-73300000D01*
X105200000Y-84600000D02*
X105200000Y-81450000D01*
D21*
X103174604Y-85575396D02*
X103174604Y-85075396D01*
D20*
X105950000Y-79650000D02*
X105200000Y-80400000D01*
X99950000Y-88700000D02*
X99050000Y-89600000D01*
X107900000Y-79650000D02*
X108350000Y-79200000D01*
X107454000Y-62546000D02*
X121046000Y-62546000D01*
X122100000Y-63600000D02*
X122100000Y-64800000D01*
X105200000Y-84600000D02*
X104811400Y-84600000D01*
X107850000Y-68100000D02*
X107800000Y-68050000D01*
X105200000Y-87850000D02*
X105200000Y-84600000D01*
X99350000Y-76600000D02*
X100430653Y-77680653D01*
D22*
X108350000Y-77300000D02*
X108350000Y-77050000D01*
D20*
X99950000Y-72850000D02*
X99350000Y-73450000D01*
X108350000Y-77050000D02*
X108350000Y-68600000D01*
X107250000Y-62750000D02*
X107454000Y-62546000D01*
X107900000Y-79650000D02*
X105950000Y-79650000D01*
X103950000Y-88700000D02*
X99950000Y-88700000D01*
X121046000Y-62546000D02*
X122100000Y-63600000D01*
X108350000Y-68600000D02*
X107850000Y-68100000D01*
X107800000Y-68050000D02*
X107450000Y-68050000D01*
X105200000Y-80400000D02*
X105200000Y-81450000D01*
X103950000Y-88700000D02*
X104350000Y-88700000D01*
X104811400Y-84600000D02*
X104750000Y-84661400D01*
X99350000Y-73450000D02*
X99350000Y-76600000D01*
X101850000Y-73300000D02*
X101400000Y-72850000D01*
X100430653Y-77680653D02*
X103075125Y-77680653D01*
X108350000Y-79200000D02*
X108350000Y-77300000D01*
D21*
X103588600Y-84661400D02*
X104750000Y-84661400D01*
D20*
X122100000Y-64800000D02*
X122050000Y-64850000D01*
X104350000Y-88700000D02*
X105200000Y-87850000D01*
D23*
X101800000Y-87500000D02*
X102500000Y-86800000D01*
X102500000Y-79700000D02*
X103250000Y-78950000D01*
X106100000Y-73050000D02*
X104050000Y-73050000D01*
X105750000Y-78950000D02*
X106800000Y-77900000D01*
X106800000Y-73750000D02*
X106100000Y-73050000D01*
X103250000Y-78950000D02*
X105750000Y-78950000D01*
X101000000Y-87500000D02*
X101800000Y-87500000D01*
X102500000Y-86800000D02*
X102500000Y-79700000D01*
X106800000Y-77900000D02*
X106800000Y-73750000D01*
X106396800Y-74946800D02*
X105800000Y-74350000D01*
X105800000Y-74350000D02*
X104052400Y-74350000D01*
X102096800Y-79532990D02*
X103082989Y-78546800D01*
X101050000Y-86200000D02*
X101600000Y-86200000D01*
X104052400Y-74350000D02*
X104050000Y-74347600D01*
X102096800Y-85703200D02*
X102096800Y-79532990D01*
X103082989Y-78546800D02*
X105582990Y-78546800D01*
X106396800Y-77732990D02*
X106396800Y-74946800D01*
X105582990Y-78546800D02*
X106396800Y-77732990D01*
X101600000Y-86200000D02*
X102096800Y-85703200D01*
D24*
X110850000Y-106400000D02*
X109650000Y-107600000D01*
X86350000Y-107600000D02*
X84450000Y-105700000D01*
X110850000Y-103517500D02*
X110850000Y-106400000D01*
X84450000Y-105700000D02*
X84450000Y-102100000D01*
X109650000Y-107600000D02*
X86350000Y-107600000D01*
D23*
X100750000Y-75000000D02*
X100750000Y-73850000D01*
X103500000Y-75700000D02*
X101450000Y-75700000D01*
X101450000Y-75700000D02*
X100750000Y-75000000D01*
G04 #@! TA.AperFunction,Conductor*
G36*
X104729238Y-79579785D02*
G01*
X104774993Y-79632589D01*
X104784937Y-79701747D01*
X104755912Y-79765303D01*
X104749880Y-79771781D01*
X104607731Y-79913929D01*
X104607728Y-79913932D01*
X104545619Y-80006885D01*
X104545620Y-80006886D01*
X104524281Y-80038822D01*
X104466803Y-80177586D01*
X104466801Y-80177592D01*
X104437500Y-80324897D01*
X104437500Y-81160098D01*
X104430542Y-81201052D01*
X104406782Y-81268955D01*
X104386384Y-81449996D01*
X104386384Y-81450003D01*
X104406781Y-81631038D01*
X104406782Y-81631044D01*
X104430542Y-81698946D01*
X104437500Y-81739900D01*
X104437500Y-83834366D01*
X104417815Y-83901405D01*
X104379473Y-83939359D01*
X104312419Y-83981493D01*
X104246446Y-84000500D01*
X103523504Y-84000500D01*
X103395830Y-84025896D01*
X103395827Y-84025897D01*
X103395826Y-84025897D01*
X103395823Y-84025898D01*
X103339031Y-84049422D01*
X103281552Y-84073230D01*
X103212082Y-84080698D01*
X103149603Y-84049422D01*
X103113951Y-83989333D01*
X103110100Y-83958668D01*
X103110100Y-80004074D01*
X103129785Y-79937035D01*
X103146419Y-79916393D01*
X103466393Y-79596419D01*
X103527716Y-79562934D01*
X103554074Y-79560100D01*
X104662199Y-79560100D01*
X104729238Y-79579785D01*
G37*
G04 #@! TD.AperFunction*
G04 #@! TA.AperFunction,Conductor*
G36*
X139050733Y-57000008D02*
G01*
X139241077Y-57002343D01*
X139251681Y-57002930D01*
X139631224Y-57040312D01*
X139643249Y-57042096D01*
X140016527Y-57116345D01*
X140028329Y-57119301D01*
X140392544Y-57229785D01*
X140404002Y-57233885D01*
X140755627Y-57379532D01*
X140766626Y-57384734D01*
X141102282Y-57564147D01*
X141112713Y-57570399D01*
X141429169Y-57781849D01*
X141438942Y-57789097D01*
X141733148Y-58030544D01*
X141742165Y-58038717D01*
X142011282Y-58307834D01*
X142019455Y-58316851D01*
X142260902Y-58611057D01*
X142268150Y-58620830D01*
X142479600Y-58937286D01*
X142485856Y-58947724D01*
X142665264Y-59283372D01*
X142670467Y-59294372D01*
X142816114Y-59645997D01*
X142820214Y-59657455D01*
X142930698Y-60021670D01*
X142933654Y-60033474D01*
X142997617Y-60355034D01*
X143000000Y-60379225D01*
X143000000Y-105620773D01*
X142997617Y-105644964D01*
X142933654Y-105966525D01*
X142930698Y-105978329D01*
X142820214Y-106342544D01*
X142816114Y-106354002D01*
X142670467Y-106705627D01*
X142665264Y-106716627D01*
X142485856Y-107052275D01*
X142479600Y-107062713D01*
X142268150Y-107379169D01*
X142260902Y-107388942D01*
X142019455Y-107683148D01*
X142011282Y-107692165D01*
X141742165Y-107961282D01*
X141733148Y-107969455D01*
X141438942Y-108210902D01*
X141429169Y-108218150D01*
X141112713Y-108429600D01*
X141102275Y-108435856D01*
X140766627Y-108615264D01*
X140755627Y-108620467D01*
X140404002Y-108766114D01*
X140392544Y-108770214D01*
X140028329Y-108880698D01*
X140016525Y-108883654D01*
X139643255Y-108957902D01*
X139631218Y-108959688D01*
X139251695Y-108997068D01*
X139241062Y-108997656D01*
X139050734Y-108999991D01*
X139049213Y-109000000D01*
X73000787Y-109000000D01*
X72999266Y-108999991D01*
X72808937Y-108997656D01*
X72798304Y-108997068D01*
X72418781Y-108959688D01*
X72406744Y-108957902D01*
X72033474Y-108883654D01*
X72021670Y-108880698D01*
X71657455Y-108770214D01*
X71645997Y-108766114D01*
X71294372Y-108620467D01*
X71283372Y-108615264D01*
X70947724Y-108435856D01*
X70937286Y-108429600D01*
X70620830Y-108218150D01*
X70611057Y-108210902D01*
X70316851Y-107969455D01*
X70307834Y-107961282D01*
X70038717Y-107692165D01*
X70030544Y-107683148D01*
X69789097Y-107388942D01*
X69781849Y-107379169D01*
X69570399Y-107062713D01*
X69564143Y-107052275D01*
X69525050Y-106979138D01*
X69384734Y-106716626D01*
X69379532Y-106705627D01*
X69290001Y-106489480D01*
X69233884Y-106354001D01*
X69229785Y-106342544D01*
X69193444Y-106222743D01*
X69119300Y-105978327D01*
X69116345Y-105966525D01*
X69116040Y-105964992D01*
X69042096Y-105593249D01*
X69040311Y-105581218D01*
X69036365Y-105541153D01*
X69002930Y-105201681D01*
X69002343Y-105191075D01*
X69001487Y-105121288D01*
X71149500Y-105121288D01*
X71176916Y-105329541D01*
X71181162Y-105361789D01*
X71212554Y-105478944D01*
X71243947Y-105596104D01*
X71328986Y-105801405D01*
X71336776Y-105820212D01*
X71458064Y-106030289D01*
X71458066Y-106030292D01*
X71458067Y-106030293D01*
X71605733Y-106222736D01*
X71605739Y-106222743D01*
X71777256Y-106394260D01*
X71777262Y-106394265D01*
X71969711Y-106541936D01*
X72179788Y-106663224D01*
X72403900Y-106756054D01*
X72638211Y-106818838D01*
X72818586Y-106842584D01*
X72878711Y-106850500D01*
X72878712Y-106850500D01*
X73121289Y-106850500D01*
X73169388Y-106844167D01*
X73361789Y-106818838D01*
X73596100Y-106756054D01*
X73820212Y-106663224D01*
X74030289Y-106541936D01*
X74222738Y-106394265D01*
X74394265Y-106222738D01*
X74541936Y-106030289D01*
X74663224Y-105820212D01*
X74675952Y-105789483D01*
X83541500Y-105789483D01*
X83576410Y-105964992D01*
X83576413Y-105965001D01*
X83644893Y-106130329D01*
X83644900Y-106130342D01*
X83744321Y-106279134D01*
X83744324Y-106279138D01*
X85770861Y-108305675D01*
X85770865Y-108305678D01*
X85919664Y-108405103D01*
X86036574Y-108453528D01*
X86085000Y-108473587D01*
X86260516Y-108508499D01*
X86260520Y-108508500D01*
X86260521Y-108508500D01*
X109739480Y-108508500D01*
X109739481Y-108508499D01*
X109797986Y-108496862D01*
X109914992Y-108473589D01*
X109914995Y-108473587D01*
X109915000Y-108473587D01*
X110080336Y-108405103D01*
X110229135Y-108305678D01*
X111555678Y-106979135D01*
X111655102Y-106830336D01*
X111669781Y-106794898D01*
X111723587Y-106665000D01*
X111752707Y-106518600D01*
X111758500Y-106489480D01*
X111758500Y-106310521D01*
X111758500Y-105868444D01*
X111778185Y-105801405D01*
X111817403Y-105762905D01*
X111822735Y-105759615D01*
X111822738Y-105759615D01*
X111973652Y-105666530D01*
X112099030Y-105541152D01*
X112192115Y-105390238D01*
X112247887Y-105221926D01*
X112258500Y-105118045D01*
X112258500Y-104527681D01*
X113260000Y-104527681D01*
X113294473Y-104745335D01*
X113362567Y-104954910D01*
X113462613Y-105151260D01*
X113592142Y-105329541D01*
X113747958Y-105485357D01*
X113926239Y-105614886D01*
X114122589Y-105714932D01*
X114332163Y-105783026D01*
X114409999Y-105795354D01*
X114410000Y-105795354D01*
X114410000Y-104065982D01*
X114428409Y-104076611D01*
X114581009Y-104117500D01*
X114738991Y-104117500D01*
X114891591Y-104076611D01*
X114910000Y-104065982D01*
X114910000Y-105795354D01*
X114987834Y-105783026D01*
X114987837Y-105783026D01*
X115197410Y-105714932D01*
X115393760Y-105614886D01*
X115572041Y-105485357D01*
X115727857Y-105329541D01*
X115857386Y-105151260D01*
X115872658Y-105121288D01*
X137199500Y-105121288D01*
X137226916Y-105329541D01*
X137231162Y-105361789D01*
X137262554Y-105478944D01*
X137293947Y-105596104D01*
X137378986Y-105801405D01*
X137386776Y-105820212D01*
X137508064Y-106030289D01*
X137508066Y-106030292D01*
X137508067Y-106030293D01*
X137655733Y-106222736D01*
X137655739Y-106222743D01*
X137827256Y-106394260D01*
X137827262Y-106394265D01*
X138019711Y-106541936D01*
X138229788Y-106663224D01*
X138453900Y-106756054D01*
X138688211Y-106818838D01*
X138868586Y-106842584D01*
X138928711Y-106850500D01*
X138928712Y-106850500D01*
X139171289Y-106850500D01*
X139219388Y-106844167D01*
X139411789Y-106818838D01*
X139646100Y-106756054D01*
X139870212Y-106663224D01*
X140080289Y-106541936D01*
X140272738Y-106394265D01*
X140444265Y-106222738D01*
X140591936Y-106030289D01*
X140713224Y-105820212D01*
X140806054Y-105596100D01*
X140868838Y-105361789D01*
X140900500Y-105121288D01*
X140900500Y-104878712D01*
X140896445Y-104847914D01*
X140868838Y-104638214D01*
X140868838Y-104638211D01*
X140806054Y-104403900D01*
X140713224Y-104179788D01*
X140591936Y-103969711D01*
X140444265Y-103777262D01*
X140444260Y-103777256D01*
X140272743Y-103605739D01*
X140272736Y-103605733D01*
X140080293Y-103458067D01*
X140080292Y-103458066D01*
X140080289Y-103458064D01*
X139870212Y-103336776D01*
X139870205Y-103336773D01*
X139646104Y-103243947D01*
X139411785Y-103181161D01*
X139171289Y-103149500D01*
X139171288Y-103149500D01*
X138928712Y-103149500D01*
X138928711Y-103149500D01*
X138688214Y-103181161D01*
X138453895Y-103243947D01*
X138229794Y-103336773D01*
X138229785Y-103336777D01*
X138019706Y-103458067D01*
X137827263Y-103605733D01*
X137827256Y-103605739D01*
X137655739Y-103777256D01*
X137655733Y-103777263D01*
X137508067Y-103969706D01*
X137386777Y-104179785D01*
X137386773Y-104179794D01*
X137293947Y-104403895D01*
X137231161Y-104638214D01*
X137199500Y-104878711D01*
X137199500Y-105121288D01*
X115872658Y-105121288D01*
X115957432Y-104954910D01*
X116025526Y-104745335D01*
X116060000Y-104527681D01*
X116060000Y-103767500D01*
X115208482Y-103767500D01*
X115219111Y-103749091D01*
X115260000Y-103596491D01*
X115260000Y-103438509D01*
X115219111Y-103285909D01*
X115208482Y-103267500D01*
X116060000Y-103267500D01*
X116060000Y-102507318D01*
X116025526Y-102289664D01*
X115957432Y-102080089D01*
X115857386Y-101883739D01*
X115727857Y-101705458D01*
X115572041Y-101549642D01*
X115393760Y-101420113D01*
X115197410Y-101320067D01*
X114987836Y-101251973D01*
X114910000Y-101239644D01*
X114910000Y-102969017D01*
X114891591Y-102958389D01*
X114738991Y-102917500D01*
X114581009Y-102917500D01*
X114428409Y-102958389D01*
X114410000Y-102969017D01*
X114410000Y-101239644D01*
X114332164Y-101251973D01*
X114332161Y-101251973D01*
X114122589Y-101320067D01*
X113926239Y-101420113D01*
X113747958Y-101549642D01*
X113592142Y-101705458D01*
X113462613Y-101883739D01*
X113362567Y-102080089D01*
X113294473Y-102289664D01*
X113260000Y-102507318D01*
X113260000Y-103267500D01*
X114111518Y-103267500D01*
X114100889Y-103285909D01*
X114060000Y-103438509D01*
X114060000Y-103596491D01*
X114100889Y-103749091D01*
X114111518Y-103767500D01*
X113260000Y-103767500D01*
X113260000Y-104527681D01*
X112258500Y-104527681D01*
X112258499Y-101916956D01*
X112247887Y-101813074D01*
X112192115Y-101644762D01*
X112099030Y-101493848D01*
X111973652Y-101368470D01*
X111854378Y-101294901D01*
X111822740Y-101275386D01*
X111822735Y-101275384D01*
X111654427Y-101219613D01*
X111550545Y-101209000D01*
X110149462Y-101209000D01*
X110149446Y-101209001D01*
X110045572Y-101219613D01*
X109877264Y-101275384D01*
X109877259Y-101275386D01*
X109726346Y-101368471D01*
X109600971Y-101493846D01*
X109507886Y-101644759D01*
X109507884Y-101644764D01*
X109452113Y-101813072D01*
X109441500Y-101916947D01*
X109441500Y-105118037D01*
X109441501Y-105118053D01*
X109452113Y-105221927D01*
X109487772Y-105329541D01*
X109507885Y-105390238D01*
X109600970Y-105541152D01*
X109726348Y-105666530D01*
X109877262Y-105759615D01*
X109877264Y-105759615D01*
X109882597Y-105762905D01*
X109929321Y-105814853D01*
X109941500Y-105868444D01*
X109941500Y-105972325D01*
X109921815Y-106039364D01*
X109905181Y-106060006D01*
X109310006Y-106655181D01*
X109248683Y-106688666D01*
X109222325Y-106691500D01*
X86777675Y-106691500D01*
X86710636Y-106671815D01*
X86689994Y-106655181D01*
X85394819Y-105360006D01*
X85361334Y-105298683D01*
X85358500Y-105272325D01*
X85358500Y-104175537D01*
X95941500Y-104175537D01*
X95941501Y-104175553D01*
X95952113Y-104279427D01*
X96007884Y-104447735D01*
X96007886Y-104447740D01*
X96038352Y-104497132D01*
X96100970Y-104598652D01*
X96226348Y-104724030D01*
X96377262Y-104817115D01*
X96545574Y-104872887D01*
X96649455Y-104883500D01*
X97450544Y-104883499D01*
X97554426Y-104872887D01*
X97722738Y-104817115D01*
X97873652Y-104724030D01*
X97999030Y-104598652D01*
X98033808Y-104542267D01*
X98085754Y-104495543D01*
X98154716Y-104484320D01*
X98218799Y-104512163D01*
X98227027Y-104519683D01*
X98327862Y-104620518D01*
X98327867Y-104620522D01*
X98450984Y-104709971D01*
X98469019Y-104723074D01*
X98570646Y-104774856D01*
X98624483Y-104802288D01*
X98624486Y-104802289D01*
X98707455Y-104829246D01*
X98790426Y-104856205D01*
X98962759Y-104883500D01*
X98962760Y-104883500D01*
X99137240Y-104883500D01*
X99137241Y-104883500D01*
X99309574Y-104856205D01*
X99475516Y-104802288D01*
X99630981Y-104723074D01*
X99772139Y-104620517D01*
X99895517Y-104497139D01*
X99904831Y-104484320D01*
X99949682Y-104422588D01*
X100005011Y-104379922D01*
X100074625Y-104373943D01*
X100136420Y-104406548D01*
X100150318Y-104422588D01*
X100204477Y-104497132D01*
X100204481Y-104497137D01*
X100327862Y-104620518D01*
X100327867Y-104620522D01*
X100450984Y-104709971D01*
X100469019Y-104723074D01*
X100570646Y-104774856D01*
X100624483Y-104802288D01*
X100624486Y-104802289D01*
X100707455Y-104829246D01*
X100790426Y-104856205D01*
X100962759Y-104883500D01*
X100962760Y-104883500D01*
X101137240Y-104883500D01*
X101137241Y-104883500D01*
X101309574Y-104856205D01*
X101475516Y-104802288D01*
X101630981Y-104723074D01*
X101772139Y-104620517D01*
X101895517Y-104497139D01*
X101954936Y-104415355D01*
X102010264Y-104372691D01*
X102079877Y-104366712D01*
X102141672Y-104399317D01*
X102155571Y-104415357D01*
X102210961Y-104491595D01*
X102210965Y-104491600D01*
X102333397Y-104614032D01*
X102473475Y-104715804D01*
X102627744Y-104794408D01*
X102792415Y-104847914D01*
X102792414Y-104847914D01*
X102799999Y-104849115D01*
X102800000Y-104849114D01*
X102800000Y-103780330D01*
X102819745Y-103800075D01*
X102905255Y-103849444D01*
X103000630Y-103875000D01*
X103099370Y-103875000D01*
X103194745Y-103849444D01*
X103280255Y-103800075D01*
X103300000Y-103780330D01*
X103300000Y-104849115D01*
X103307584Y-104847914D01*
X103472255Y-104794408D01*
X103626524Y-104715804D01*
X103766602Y-104614032D01*
X103889032Y-104491602D01*
X103990804Y-104351524D01*
X104069408Y-104197257D01*
X104122914Y-104032584D01*
X104150000Y-103861571D01*
X104150000Y-103750000D01*
X103330330Y-103750000D01*
X103350075Y-103730255D01*
X103399444Y-103644745D01*
X103425000Y-103549370D01*
X103425000Y-103450630D01*
X103399444Y-103355255D01*
X103350075Y-103269745D01*
X103330330Y-103250000D01*
X104150000Y-103250000D01*
X104150000Y-103138428D01*
X104122914Y-102967415D01*
X104069408Y-102802742D01*
X103990804Y-102648475D01*
X103889032Y-102508397D01*
X103766602Y-102385967D01*
X103626524Y-102284195D01*
X103472257Y-102205591D01*
X103307589Y-102152087D01*
X103307581Y-102152085D01*
X103300000Y-102150884D01*
X103300000Y-103219670D01*
X103280255Y-103199925D01*
X103194745Y-103150556D01*
X103099370Y-103125000D01*
X103000630Y-103125000D01*
X102905255Y-103150556D01*
X102819745Y-103199925D01*
X102800000Y-103219670D01*
X102800000Y-102150884D01*
X102799999Y-102150884D01*
X102792418Y-102152085D01*
X102792410Y-102152087D01*
X102627742Y-102205591D01*
X102473475Y-102284195D01*
X102333397Y-102385967D01*
X102210965Y-102508399D01*
X102155571Y-102584643D01*
X102100241Y-102627308D01*
X102030627Y-102633287D01*
X101968832Y-102600681D01*
X101954935Y-102584642D01*
X101895522Y-102502867D01*
X101895518Y-102502862D01*
X101772137Y-102379481D01*
X101772132Y-102379477D01*
X101630984Y-102276928D01*
X101630983Y-102276927D01*
X101630981Y-102276926D01*
X101581175Y-102251548D01*
X101475516Y-102197711D01*
X101475513Y-102197710D01*
X101309575Y-102143795D01*
X101223407Y-102130147D01*
X101137241Y-102116500D01*
X100962759Y-102116500D01*
X100905314Y-102125598D01*
X100790424Y-102143795D01*
X100624486Y-102197710D01*
X100624483Y-102197711D01*
X100469015Y-102276928D01*
X100327867Y-102379477D01*
X100327862Y-102379481D01*
X100204481Y-102502862D01*
X100150318Y-102577412D01*
X100094988Y-102620077D01*
X100025375Y-102626056D01*
X99963580Y-102593450D01*
X99949682Y-102577412D01*
X99895518Y-102502862D01*
X99772137Y-102379481D01*
X99772132Y-102379477D01*
X99630984Y-102276928D01*
X99630983Y-102276927D01*
X99630981Y-102276926D01*
X99581175Y-102251548D01*
X99475516Y-102197711D01*
X99475513Y-102197710D01*
X99309575Y-102143795D01*
X99223407Y-102130147D01*
X99137241Y-102116500D01*
X98962759Y-102116500D01*
X98905314Y-102125598D01*
X98790424Y-102143795D01*
X98624486Y-102197710D01*
X98624483Y-102197711D01*
X98469015Y-102276928D01*
X98327868Y-102379476D01*
X98227027Y-102480317D01*
X98165704Y-102513801D01*
X98096012Y-102508817D01*
X98040079Y-102466945D01*
X98033807Y-102457731D01*
X97999030Y-102401348D01*
X97873653Y-102275971D01*
X97873652Y-102275970D01*
X97722738Y-102182885D01*
X97722735Y-102182884D01*
X97554427Y-102127113D01*
X97450546Y-102116500D01*
X96649462Y-102116500D01*
X96649446Y-102116501D01*
X96545572Y-102127113D01*
X96377264Y-102182884D01*
X96377259Y-102182886D01*
X96226346Y-102275971D01*
X96100971Y-102401346D01*
X96007886Y-102552259D01*
X96007884Y-102552264D01*
X95952113Y-102720572D01*
X95941500Y-102824447D01*
X95941500Y-104175537D01*
X85358500Y-104175537D01*
X85358500Y-102010520D01*
X85358499Y-102010516D01*
X85339887Y-101916946D01*
X85323587Y-101835000D01*
X85255102Y-101669664D01*
X85255100Y-101669661D01*
X85255098Y-101669657D01*
X85155678Y-101520865D01*
X85155675Y-101520861D01*
X85029138Y-101394324D01*
X85029134Y-101394321D01*
X84880342Y-101294901D01*
X84880332Y-101294896D01*
X84715000Y-101226413D01*
X84714992Y-101226411D01*
X84539483Y-101191500D01*
X84539479Y-101191500D01*
X84360521Y-101191500D01*
X84360516Y-101191500D01*
X84185007Y-101226411D01*
X84184999Y-101226413D01*
X84019667Y-101294896D01*
X84019657Y-101294901D01*
X83870865Y-101394321D01*
X83870861Y-101394324D01*
X83744324Y-101520861D01*
X83744321Y-101520865D01*
X83644901Y-101669657D01*
X83644896Y-101669667D01*
X83576413Y-101834999D01*
X83576411Y-101835007D01*
X83541500Y-102010516D01*
X83541500Y-105789483D01*
X74675952Y-105789483D01*
X74756054Y-105596100D01*
X74818838Y-105361789D01*
X74850500Y-105121288D01*
X74850500Y-104878712D01*
X74846445Y-104847914D01*
X74818838Y-104638214D01*
X74818838Y-104638211D01*
X74756054Y-104403900D01*
X74663224Y-104179788D01*
X74541936Y-103969711D01*
X74394265Y-103777262D01*
X74394260Y-103777256D01*
X74222743Y-103605739D01*
X74222736Y-103605733D01*
X74030293Y-103458067D01*
X74030292Y-103458066D01*
X74030289Y-103458064D01*
X73820212Y-103336776D01*
X73820205Y-103336773D01*
X73596104Y-103243947D01*
X73361785Y-103181161D01*
X73121289Y-103149500D01*
X73121288Y-103149500D01*
X72878712Y-103149500D01*
X72878711Y-103149500D01*
X72638214Y-103181161D01*
X72403895Y-103243947D01*
X72179794Y-103336773D01*
X72179785Y-103336777D01*
X71969706Y-103458067D01*
X71777263Y-103605733D01*
X71777256Y-103605739D01*
X71605739Y-103777256D01*
X71605733Y-103777263D01*
X71458067Y-103969706D01*
X71336777Y-104179785D01*
X71336773Y-104179794D01*
X71243947Y-104403895D01*
X71181161Y-104638214D01*
X71149500Y-104878711D01*
X71149500Y-105121288D01*
X69001487Y-105121288D01*
X69000009Y-105000732D01*
X69000000Y-104999212D01*
X69000000Y-96540850D01*
X71341500Y-96540850D01*
X71376182Y-96759824D01*
X71444693Y-96970680D01*
X71499900Y-97079028D01*
X71545343Y-97168215D01*
X71675657Y-97347576D01*
X71832424Y-97504343D01*
X72011785Y-97634657D01*
X72105114Y-97682210D01*
X72209319Y-97735306D01*
X72209321Y-97735306D01*
X72209324Y-97735308D01*
X72420176Y-97803818D01*
X72639149Y-97838500D01*
X72639150Y-97838500D01*
X74660850Y-97838500D01*
X74660851Y-97838500D01*
X74879824Y-97803818D01*
X75090676Y-97735308D01*
X75288215Y-97634657D01*
X75467576Y-97504343D01*
X75624343Y-97347576D01*
X75754657Y-97168215D01*
X75855308Y-96970676D01*
X75923818Y-96759824D01*
X75958500Y-96540851D01*
X75958500Y-96530537D01*
X136159000Y-96530537D01*
X136159001Y-96530553D01*
X136169613Y-96634426D01*
X136225385Y-96802738D01*
X136318470Y-96953652D01*
X136443848Y-97079030D01*
X136594762Y-97172115D01*
X136763074Y-97227887D01*
X136866955Y-97238500D01*
X140068044Y-97238499D01*
X140171926Y-97227887D01*
X140340238Y-97172115D01*
X140491152Y-97079030D01*
X140616530Y-96953652D01*
X140709615Y-96802738D01*
X140765387Y-96634426D01*
X140776000Y-96530545D01*
X140775999Y-95129456D01*
X140765387Y-95025574D01*
X140709615Y-94857262D01*
X140616530Y-94706348D01*
X140491152Y-94580970D01*
X140340238Y-94487885D01*
X140340235Y-94487884D01*
X140171927Y-94432113D01*
X140068045Y-94421500D01*
X136866962Y-94421500D01*
X136866946Y-94421501D01*
X136763072Y-94432113D01*
X136594764Y-94487884D01*
X136594759Y-94487886D01*
X136443846Y-94580971D01*
X136318471Y-94706346D01*
X136225386Y-94857259D01*
X136225384Y-94857264D01*
X136169613Y-95025572D01*
X136159000Y-95129447D01*
X136159000Y-96530537D01*
X75958500Y-96530537D01*
X75958500Y-96319149D01*
X75923818Y-96100176D01*
X75855308Y-95889324D01*
X75855306Y-95889321D01*
X75855306Y-95889319D01*
X75754656Y-95691784D01*
X75624343Y-95512424D01*
X75467576Y-95355657D01*
X75288215Y-95225343D01*
X75090680Y-95124693D01*
X74879824Y-95056182D01*
X74660851Y-95021500D01*
X72639149Y-95021500D01*
X72529662Y-95038841D01*
X72420175Y-95056182D01*
X72209319Y-95124693D01*
X72011784Y-95225343D01*
X71909452Y-95299692D01*
X71832424Y-95355657D01*
X71832422Y-95355659D01*
X71832421Y-95355659D01*
X71675659Y-95512421D01*
X71675659Y-95512422D01*
X71675657Y-95512424D01*
X71619692Y-95589452D01*
X71545343Y-95691784D01*
X71444693Y-95889319D01*
X71376182Y-96100175D01*
X71341500Y-96319149D01*
X71341500Y-96540850D01*
X69000000Y-96540850D01*
X69000000Y-92730850D01*
X71341500Y-92730850D01*
X71376182Y-92949824D01*
X71444693Y-93160680D01*
X71528575Y-93325306D01*
X71545343Y-93358215D01*
X71675657Y-93537576D01*
X71832424Y-93694343D01*
X72011785Y-93824657D01*
X72105114Y-93872210D01*
X72209319Y-93925306D01*
X72209321Y-93925306D01*
X72209324Y-93925308D01*
X72420176Y-93993818D01*
X72639149Y-94028500D01*
X72639150Y-94028500D01*
X74660850Y-94028500D01*
X74660851Y-94028500D01*
X74879824Y-93993818D01*
X75090676Y-93925308D01*
X75288215Y-93824657D01*
X75467576Y-93694343D01*
X75624343Y-93537576D01*
X75754657Y-93358215D01*
X75855308Y-93160676D01*
X75923818Y-92949824D01*
X75958500Y-92730851D01*
X75958500Y-92509149D01*
X75923818Y-92290176D01*
X75872050Y-92130850D01*
X136159000Y-92130850D01*
X136193682Y-92349824D01*
X136262193Y-92560680D01*
X136348900Y-92730850D01*
X136362843Y-92758215D01*
X136493157Y-92937576D01*
X136649924Y-93094343D01*
X136829285Y-93224657D01*
X136922614Y-93272210D01*
X137026819Y-93325306D01*
X137026821Y-93325306D01*
X137026824Y-93325308D01*
X137237676Y-93393818D01*
X137456649Y-93428500D01*
X137456650Y-93428500D01*
X139478350Y-93428500D01*
X139478351Y-93428500D01*
X139697324Y-93393818D01*
X139908176Y-93325308D01*
X140105715Y-93224657D01*
X140285076Y-93094343D01*
X140441843Y-92937576D01*
X140572157Y-92758215D01*
X140672808Y-92560676D01*
X140741318Y-92349824D01*
X140776000Y-92130851D01*
X140776000Y-91909149D01*
X140741318Y-91690176D01*
X140672808Y-91479324D01*
X140672806Y-91479321D01*
X140672806Y-91479319D01*
X140572156Y-91281784D01*
X140441843Y-91102424D01*
X140285076Y-90945657D01*
X140105715Y-90815343D01*
X139908180Y-90714693D01*
X139697324Y-90646182D01*
X139478351Y-90611500D01*
X137456649Y-90611500D01*
X137347162Y-90628841D01*
X137237675Y-90646182D01*
X137026819Y-90714693D01*
X136829284Y-90815343D01*
X136726952Y-90889692D01*
X136649924Y-90945657D01*
X136649922Y-90945659D01*
X136649921Y-90945659D01*
X136493159Y-91102421D01*
X136493159Y-91102422D01*
X136493157Y-91102424D01*
X136437192Y-91179452D01*
X136362843Y-91281784D01*
X136262193Y-91479319D01*
X136193682Y-91690175D01*
X136159000Y-91909149D01*
X136159000Y-92130850D01*
X75872050Y-92130850D01*
X75855308Y-92079324D01*
X75855306Y-92079321D01*
X75855306Y-92079319D01*
X75802210Y-91975114D01*
X75754657Y-91881785D01*
X75624343Y-91702424D01*
X75467576Y-91545657D01*
X75288215Y-91415343D01*
X75090680Y-91314693D01*
X74879824Y-91246182D01*
X74660851Y-91211500D01*
X72639149Y-91211500D01*
X72529662Y-91228841D01*
X72420175Y-91246182D01*
X72209319Y-91314693D01*
X72011784Y-91415343D01*
X71923730Y-91479319D01*
X71832424Y-91545657D01*
X71832422Y-91545659D01*
X71832421Y-91545659D01*
X71675659Y-91702421D01*
X71675659Y-91702422D01*
X71675657Y-91702424D01*
X71619692Y-91779452D01*
X71545343Y-91881784D01*
X71444693Y-92079319D01*
X71376182Y-92290175D01*
X71341500Y-92509149D01*
X71341500Y-92730850D01*
X69000000Y-92730850D01*
X69000000Y-90900003D01*
X98236384Y-90900003D01*
X98256781Y-91081041D01*
X98256782Y-91081046D01*
X98264262Y-91102421D01*
X98316957Y-91253015D01*
X98413889Y-91407281D01*
X98542719Y-91536111D01*
X98696985Y-91633043D01*
X98860262Y-91690176D01*
X98868953Y-91693217D01*
X98868958Y-91693218D01*
X99049996Y-91713616D01*
X99050000Y-91713616D01*
X99050004Y-91713616D01*
X99231041Y-91693218D01*
X99231044Y-91693217D01*
X99231047Y-91693217D01*
X99403015Y-91633043D01*
X99557281Y-91536111D01*
X99686111Y-91407281D01*
X99783043Y-91253015D01*
X99843217Y-91081047D01*
X99843218Y-91081041D01*
X99863616Y-90900003D01*
X99863616Y-90899996D01*
X99843217Y-90718955D01*
X99843217Y-90718953D01*
X99819458Y-90651052D01*
X99812500Y-90610098D01*
X99812500Y-89967199D01*
X99832185Y-89900160D01*
X99848819Y-89879518D01*
X100229518Y-89498819D01*
X100290841Y-89465334D01*
X100317199Y-89462500D01*
X103660099Y-89462500D01*
X103701052Y-89469458D01*
X103734363Y-89481113D01*
X103768953Y-89493217D01*
X103768960Y-89493217D01*
X103768961Y-89493218D01*
X103949996Y-89513616D01*
X103950000Y-89513616D01*
X103950004Y-89513616D01*
X104131038Y-89493218D01*
X104131037Y-89493218D01*
X104131047Y-89493217D01*
X104172804Y-89478605D01*
X104198948Y-89469458D01*
X104239901Y-89462500D01*
X104425102Y-89462500D01*
X104524204Y-89442786D01*
X104572413Y-89433197D01*
X104711179Y-89375718D01*
X104736948Y-89358500D01*
X104836065Y-89292273D01*
X105792273Y-88336065D01*
X105802439Y-88320851D01*
X136159000Y-88320851D01*
X136184235Y-88480175D01*
X136193682Y-88539824D01*
X136262193Y-88750680D01*
X136348900Y-88920850D01*
X136362843Y-88948215D01*
X136493157Y-89127576D01*
X136649924Y-89284343D01*
X136829285Y-89414657D01*
X136865670Y-89433196D01*
X137026819Y-89515306D01*
X137026821Y-89515306D01*
X137026824Y-89515308D01*
X137237676Y-89583818D01*
X137456649Y-89618500D01*
X137456650Y-89618500D01*
X139478350Y-89618500D01*
X139478351Y-89618500D01*
X139697324Y-89583818D01*
X139908176Y-89515308D01*
X140105715Y-89414657D01*
X140285076Y-89284343D01*
X140441843Y-89127576D01*
X140572157Y-88948215D01*
X140672808Y-88750676D01*
X140741318Y-88539824D01*
X140776000Y-88320851D01*
X140776000Y-88099149D01*
X140741318Y-87880176D01*
X140672808Y-87669324D01*
X140672806Y-87669321D01*
X140672806Y-87669319D01*
X140611927Y-87549838D01*
X140572157Y-87471785D01*
X140441843Y-87292424D01*
X140285076Y-87135657D01*
X140105715Y-87005343D01*
X140051973Y-86977960D01*
X139908180Y-86904693D01*
X139697324Y-86836182D01*
X139696876Y-86836111D01*
X139478351Y-86801500D01*
X137456649Y-86801500D01*
X137402351Y-86810100D01*
X137237675Y-86836182D01*
X137026819Y-86904693D01*
X136829284Y-87005343D01*
X136726952Y-87079692D01*
X136649924Y-87135657D01*
X136649922Y-87135659D01*
X136649921Y-87135659D01*
X136493159Y-87292421D01*
X136493159Y-87292422D01*
X136493157Y-87292424D01*
X136473879Y-87318958D01*
X136362843Y-87471784D01*
X136262193Y-87669319D01*
X136193682Y-87880175D01*
X136186567Y-87925100D01*
X136159000Y-88099149D01*
X136159000Y-88320851D01*
X105802439Y-88320851D01*
X105875719Y-88211178D01*
X105918569Y-88107728D01*
X105933197Y-88072413D01*
X105954205Y-87966801D01*
X105962500Y-87925102D01*
X105962500Y-84510850D01*
X136159000Y-84510850D01*
X136193682Y-84729824D01*
X136262193Y-84940680D01*
X136348900Y-85110850D01*
X136362843Y-85138215D01*
X136493157Y-85317576D01*
X136649924Y-85474343D01*
X136829285Y-85604657D01*
X136922614Y-85652210D01*
X137026819Y-85705306D01*
X137026821Y-85705306D01*
X137026824Y-85705308D01*
X137237676Y-85773818D01*
X137456649Y-85808500D01*
X137456650Y-85808500D01*
X139478350Y-85808500D01*
X139478351Y-85808500D01*
X139697324Y-85773818D01*
X139908176Y-85705308D01*
X140105715Y-85604657D01*
X140285076Y-85474343D01*
X140441843Y-85317576D01*
X140572157Y-85138215D01*
X140672808Y-84940676D01*
X140741318Y-84729824D01*
X140776000Y-84510851D01*
X140776000Y-84289149D01*
X140741318Y-84070176D01*
X140672808Y-83859324D01*
X140672806Y-83859321D01*
X140672806Y-83859319D01*
X140572156Y-83661784D01*
X140441843Y-83482424D01*
X140285076Y-83325657D01*
X140105715Y-83195343D01*
X139908180Y-83094693D01*
X139697324Y-83026182D01*
X139478351Y-82991500D01*
X137456649Y-82991500D01*
X137347162Y-83008841D01*
X137237675Y-83026182D01*
X137026819Y-83094693D01*
X136829284Y-83195343D01*
X136726952Y-83269692D01*
X136649924Y-83325657D01*
X136649922Y-83325659D01*
X136649921Y-83325659D01*
X136493159Y-83482421D01*
X136493159Y-83482422D01*
X136493157Y-83482424D01*
X136437192Y-83559452D01*
X136362843Y-83661784D01*
X136262193Y-83859319D01*
X136193682Y-84070175D01*
X136159000Y-84289149D01*
X136159000Y-84510850D01*
X105962500Y-84510850D01*
X105962500Y-81739900D01*
X105969458Y-81698946D01*
X105981567Y-81664340D01*
X105993217Y-81631047D01*
X106013616Y-81450000D01*
X105993217Y-81268953D01*
X105969458Y-81201052D01*
X105962500Y-81160098D01*
X105962500Y-80767200D01*
X105981983Y-80700850D01*
X136159000Y-80700850D01*
X136193682Y-80919824D01*
X136262193Y-81130680D01*
X136348900Y-81300850D01*
X136362843Y-81328215D01*
X136493157Y-81507576D01*
X136649924Y-81664343D01*
X136829285Y-81794657D01*
X136922614Y-81842210D01*
X137026819Y-81895306D01*
X137026821Y-81895306D01*
X137026824Y-81895308D01*
X137237676Y-81963818D01*
X137456649Y-81998500D01*
X137456650Y-81998500D01*
X139478350Y-81998500D01*
X139478351Y-81998500D01*
X139697324Y-81963818D01*
X139908176Y-81895308D01*
X140105715Y-81794657D01*
X140285076Y-81664343D01*
X140441843Y-81507576D01*
X140572157Y-81328215D01*
X140672808Y-81130676D01*
X140741318Y-80919824D01*
X140776000Y-80700851D01*
X140776000Y-80479149D01*
X140741318Y-80260176D01*
X140672808Y-80049324D01*
X140672806Y-80049321D01*
X140672806Y-80049319D01*
X140572156Y-79851784D01*
X140441843Y-79672424D01*
X140285076Y-79515657D01*
X140105715Y-79385343D01*
X139908180Y-79284693D01*
X139697324Y-79216182D01*
X139478351Y-79181500D01*
X137456649Y-79181500D01*
X137347162Y-79198841D01*
X137237675Y-79216182D01*
X137026819Y-79284693D01*
X136829284Y-79385343D01*
X136771144Y-79427585D01*
X136649924Y-79515657D01*
X136649922Y-79515659D01*
X136649921Y-79515659D01*
X136493159Y-79672421D01*
X136493159Y-79672422D01*
X136493157Y-79672424D01*
X136437192Y-79749452D01*
X136362843Y-79851784D01*
X136262193Y-80049319D01*
X136193682Y-80260175D01*
X136159000Y-80479149D01*
X136159000Y-80700850D01*
X105981983Y-80700850D01*
X105982185Y-80700161D01*
X105998819Y-80679519D01*
X106229519Y-80448819D01*
X106290842Y-80415334D01*
X106317200Y-80412500D01*
X107610099Y-80412500D01*
X107651052Y-80419458D01*
X107684363Y-80431113D01*
X107718953Y-80443217D01*
X107718960Y-80443217D01*
X107718961Y-80443218D01*
X107899996Y-80463616D01*
X107900000Y-80463616D01*
X107900004Y-80463616D01*
X108081041Y-80443218D01*
X108081044Y-80443217D01*
X108081047Y-80443217D01*
X108253015Y-80383043D01*
X108407281Y-80286111D01*
X108536111Y-80157281D01*
X108633043Y-80003015D01*
X108633043Y-80003013D01*
X108636748Y-79997118D01*
X108637726Y-79997732D01*
X108655107Y-79973229D01*
X108942273Y-79686065D01*
X109025718Y-79561179D01*
X109083197Y-79422413D01*
X109096600Y-79355031D01*
X109112500Y-79275100D01*
X109112500Y-77339900D01*
X109119458Y-77298946D01*
X109143217Y-77231047D01*
X109149715Y-77173372D01*
X109163616Y-77050003D01*
X109163616Y-77049996D01*
X109148760Y-76918153D01*
X109145684Y-76890851D01*
X136159000Y-76890851D01*
X136162222Y-76911195D01*
X136193682Y-77109824D01*
X136262193Y-77320680D01*
X136343513Y-77480278D01*
X136362843Y-77518215D01*
X136493157Y-77697576D01*
X136649924Y-77854343D01*
X136829285Y-77984657D01*
X136922614Y-78032210D01*
X137026819Y-78085306D01*
X137026821Y-78085306D01*
X137026824Y-78085308D01*
X137237676Y-78153818D01*
X137456649Y-78188500D01*
X137456650Y-78188500D01*
X139478350Y-78188500D01*
X139478351Y-78188500D01*
X139697324Y-78153818D01*
X139908176Y-78085308D01*
X140105715Y-77984657D01*
X140285076Y-77854343D01*
X140441843Y-77697576D01*
X140572157Y-77518215D01*
X140672808Y-77320676D01*
X140741318Y-77109824D01*
X140776000Y-76890851D01*
X140776000Y-76669149D01*
X140741318Y-76450176D01*
X140672808Y-76239324D01*
X140672806Y-76239321D01*
X140672806Y-76239319D01*
X140572156Y-76041784D01*
X140441843Y-75862424D01*
X140285076Y-75705657D01*
X140105715Y-75575343D01*
X139908180Y-75474693D01*
X139697324Y-75406182D01*
X139588311Y-75388916D01*
X139478351Y-75371500D01*
X137456649Y-75371500D01*
X137347162Y-75388841D01*
X137237675Y-75406182D01*
X137026819Y-75474693D01*
X136829284Y-75575343D01*
X136726952Y-75649692D01*
X136649924Y-75705657D01*
X136649922Y-75705659D01*
X136649921Y-75705659D01*
X136493159Y-75862421D01*
X136493159Y-75862422D01*
X136493157Y-75862424D01*
X136479627Y-75881047D01*
X136362843Y-76041784D01*
X136262193Y-76239319D01*
X136193682Y-76450175D01*
X136191742Y-76462422D01*
X136159000Y-76669149D01*
X136159000Y-76890851D01*
X109145684Y-76890851D01*
X109143217Y-76868953D01*
X109119458Y-76801052D01*
X109112500Y-76760098D01*
X109112500Y-73080851D01*
X136159000Y-73080851D01*
X136181815Y-73224897D01*
X136193682Y-73299824D01*
X136262193Y-73510680D01*
X136338327Y-73660100D01*
X136362843Y-73708215D01*
X136493157Y-73887576D01*
X136649924Y-74044343D01*
X136829285Y-74174657D01*
X136922614Y-74222210D01*
X137026819Y-74275306D01*
X137026821Y-74275306D01*
X137026824Y-74275308D01*
X137237676Y-74343818D01*
X137456649Y-74378500D01*
X137456650Y-74378500D01*
X139478350Y-74378500D01*
X139478351Y-74378500D01*
X139697324Y-74343818D01*
X139908176Y-74275308D01*
X140105715Y-74174657D01*
X140285076Y-74044343D01*
X140441843Y-73887576D01*
X140572157Y-73708215D01*
X140672808Y-73510676D01*
X140741318Y-73299824D01*
X140776000Y-73080851D01*
X140776000Y-72859149D01*
X140741318Y-72640176D01*
X140672808Y-72429324D01*
X140672806Y-72429321D01*
X140672806Y-72429319D01*
X140588924Y-72264692D01*
X140572157Y-72231785D01*
X140441843Y-72052424D01*
X140285076Y-71895657D01*
X140105715Y-71765343D01*
X139908180Y-71664693D01*
X139697324Y-71596182D01*
X139478351Y-71561500D01*
X137456649Y-71561500D01*
X137347162Y-71578841D01*
X137237675Y-71596182D01*
X137026819Y-71664693D01*
X136829284Y-71765343D01*
X136726952Y-71839692D01*
X136649924Y-71895657D01*
X136649922Y-71895659D01*
X136649921Y-71895659D01*
X136493159Y-72052421D01*
X136493159Y-72052422D01*
X136493157Y-72052424D01*
X136467673Y-72087500D01*
X136362843Y-72231784D01*
X136262193Y-72429319D01*
X136193682Y-72640175D01*
X136191742Y-72652422D01*
X136159000Y-72859149D01*
X136159000Y-73080851D01*
X109112500Y-73080851D01*
X109112500Y-69270850D01*
X136159000Y-69270850D01*
X136193682Y-69489824D01*
X136262193Y-69700680D01*
X136362843Y-69898215D01*
X136493157Y-70077576D01*
X136649924Y-70234343D01*
X136829285Y-70364657D01*
X136922614Y-70412210D01*
X137026819Y-70465306D01*
X137026821Y-70465306D01*
X137026824Y-70465308D01*
X137237676Y-70533818D01*
X137456649Y-70568500D01*
X137456650Y-70568500D01*
X139478350Y-70568500D01*
X139478351Y-70568500D01*
X139697324Y-70533818D01*
X139908176Y-70465308D01*
X140105715Y-70364657D01*
X140285076Y-70234343D01*
X140441843Y-70077576D01*
X140572157Y-69898215D01*
X140672808Y-69700676D01*
X140741318Y-69489824D01*
X140776000Y-69270851D01*
X140776000Y-69049149D01*
X140741318Y-68830176D01*
X140672808Y-68619324D01*
X140672806Y-68619321D01*
X140672806Y-68619319D01*
X140572156Y-68421784D01*
X140569323Y-68417885D01*
X140441843Y-68242424D01*
X140285076Y-68085657D01*
X140105715Y-67955343D01*
X139908180Y-67854693D01*
X139697324Y-67786182D01*
X139478351Y-67751500D01*
X137456649Y-67751500D01*
X137347162Y-67768841D01*
X137237675Y-67786182D01*
X137026819Y-67854693D01*
X136829284Y-67955343D01*
X136726952Y-68029692D01*
X136649924Y-68085657D01*
X136649922Y-68085659D01*
X136649921Y-68085659D01*
X136493159Y-68242421D01*
X136493159Y-68242422D01*
X136493157Y-68242424D01*
X136437192Y-68319452D01*
X136362843Y-68421784D01*
X136262193Y-68619319D01*
X136193682Y-68830175D01*
X136159000Y-69049149D01*
X136159000Y-69270850D01*
X109112500Y-69270850D01*
X109112500Y-68524897D01*
X109083198Y-68377592D01*
X109083197Y-68377591D01*
X109083197Y-68377587D01*
X109025718Y-68238821D01*
X109025717Y-68238819D01*
X109025716Y-68238817D01*
X109020526Y-68231049D01*
X108942271Y-68113932D01*
X108942268Y-68113929D01*
X108336065Y-67507727D01*
X108336064Y-67507726D01*
X108286070Y-67457731D01*
X108286069Y-67457730D01*
X108286065Y-67457727D01*
X108161179Y-67374282D01*
X108022413Y-67316803D01*
X108022407Y-67316801D01*
X107875102Y-67287500D01*
X107875100Y-67287500D01*
X107739901Y-67287500D01*
X107698948Y-67280542D01*
X107631047Y-67256783D01*
X107631038Y-67256781D01*
X107450004Y-67236384D01*
X107449996Y-67236384D01*
X107268958Y-67256781D01*
X107268953Y-67256782D01*
X107096982Y-67316958D01*
X106942718Y-67413889D01*
X106813889Y-67542718D01*
X106716958Y-67696982D01*
X106656782Y-67868953D01*
X106656781Y-67868958D01*
X106636384Y-68049996D01*
X106636384Y-68050003D01*
X106656781Y-68231041D01*
X106656782Y-68231046D01*
X106697949Y-68348693D01*
X106716957Y-68403015D01*
X106813889Y-68557281D01*
X106942719Y-68686111D01*
X107096985Y-68783043D01*
X107231684Y-68830176D01*
X107268953Y-68843217D01*
X107268958Y-68843218D01*
X107449997Y-68863616D01*
X107456964Y-68863616D01*
X107456964Y-68864948D01*
X107518429Y-68875709D01*
X107569812Y-68923053D01*
X107587500Y-68986879D01*
X107587500Y-73433534D01*
X107567815Y-73500573D01*
X107515011Y-73546328D01*
X107445853Y-73556272D01*
X107382297Y-73527247D01*
X107348939Y-73480987D01*
X107340662Y-73461005D01*
X107273897Y-73361085D01*
X107272910Y-73360098D01*
X107188916Y-73276104D01*
X106851625Y-72938813D01*
X106488919Y-72576106D01*
X106488856Y-72576063D01*
X106474996Y-72566803D01*
X106438952Y-72542719D01*
X106388996Y-72509339D01*
X106388984Y-72509332D01*
X106339464Y-72488821D01*
X106277960Y-72463345D01*
X106160090Y-72439900D01*
X106160089Y-72439900D01*
X104633287Y-72439900D01*
X104566248Y-72420215D01*
X104558465Y-72414633D01*
X104403017Y-72316958D01*
X104403016Y-72316957D01*
X104403015Y-72316957D01*
X104348693Y-72297949D01*
X104231046Y-72256782D01*
X104231041Y-72256781D01*
X104050004Y-72236384D01*
X104049996Y-72236384D01*
X103868958Y-72256781D01*
X103868953Y-72256782D01*
X103696982Y-72316958D01*
X103542718Y-72413889D01*
X103413889Y-72542718D01*
X103316958Y-72696982D01*
X103256782Y-72868953D01*
X103256781Y-72868958D01*
X103236384Y-73049996D01*
X103236384Y-73050003D01*
X103256781Y-73231041D01*
X103256782Y-73231046D01*
X103259977Y-73240176D01*
X103309312Y-73381168D01*
X103316958Y-73403017D01*
X103413889Y-73557281D01*
X103467727Y-73611119D01*
X103501212Y-73672442D01*
X103496228Y-73742134D01*
X103467727Y-73786481D01*
X103413889Y-73840318D01*
X103316958Y-73994582D01*
X103256782Y-74166553D01*
X103256781Y-74166558D01*
X103236384Y-74347596D01*
X103236384Y-74347603D01*
X103256781Y-74528641D01*
X103256782Y-74528646D01*
X103316958Y-74700619D01*
X103316959Y-74700620D01*
X103340785Y-74738539D01*
X103359785Y-74805775D01*
X103339417Y-74872610D01*
X103286149Y-74917824D01*
X103276749Y-74921550D01*
X103224281Y-74939910D01*
X103146982Y-74966958D01*
X102986823Y-75067594D01*
X102985919Y-75066155D01*
X102929340Y-75089255D01*
X102916713Y-75089900D01*
X101754074Y-75089900D01*
X101687035Y-75070215D01*
X101666393Y-75053581D01*
X101396419Y-74783607D01*
X101362934Y-74722284D01*
X101360100Y-74695926D01*
X101360100Y-74509907D01*
X101379785Y-74442868D01*
X101432589Y-74397113D01*
X101501747Y-74387169D01*
X101525055Y-74392865D01*
X101668953Y-74443217D01*
X101668958Y-74443218D01*
X101849996Y-74463616D01*
X101850000Y-74463616D01*
X101850004Y-74463616D01*
X102031041Y-74443218D01*
X102031044Y-74443217D01*
X102031047Y-74443217D01*
X102203015Y-74383043D01*
X102357281Y-74286111D01*
X102486111Y-74157281D01*
X102583043Y-74003015D01*
X102643217Y-73831047D01*
X102643218Y-73831041D01*
X102663616Y-73650003D01*
X102663616Y-73649996D01*
X102643217Y-73468955D01*
X102643217Y-73468953D01*
X102627460Y-73423923D01*
X102619458Y-73401052D01*
X102612500Y-73360098D01*
X102612500Y-73224897D01*
X102583198Y-73077592D01*
X102583197Y-73077591D01*
X102583197Y-73077587D01*
X102525718Y-72938821D01*
X102511109Y-72916957D01*
X102442273Y-72813935D01*
X102442271Y-72813933D01*
X102442269Y-72813930D01*
X101886069Y-72257730D01*
X101884652Y-72256783D01*
X101761179Y-72174282D01*
X101622413Y-72116803D01*
X101622407Y-72116801D01*
X101475102Y-72087500D01*
X101475100Y-72087500D01*
X99874900Y-72087500D01*
X99874898Y-72087500D01*
X99727592Y-72116801D01*
X99727586Y-72116803D01*
X99588822Y-72174281D01*
X99463930Y-72257730D01*
X98757728Y-72963932D01*
X98709318Y-73036383D01*
X98709319Y-73036384D01*
X98674281Y-73088822D01*
X98616803Y-73227586D01*
X98616801Y-73227592D01*
X98587500Y-73374897D01*
X98587500Y-76675102D01*
X98612149Y-76799015D01*
X98612149Y-76799017D01*
X98616801Y-76822404D01*
X98616804Y-76822416D01*
X98674279Y-76961175D01*
X98674282Y-76961179D01*
X98733746Y-77050175D01*
X98757730Y-77086069D01*
X99944583Y-78272922D01*
X99944586Y-78272924D01*
X99944588Y-78272926D01*
X100069474Y-78356371D01*
X100208240Y-78413850D01*
X100208244Y-78413850D01*
X100208245Y-78413851D01*
X100355550Y-78443153D01*
X100355553Y-78443153D01*
X102024462Y-78443153D01*
X102091501Y-78462838D01*
X102137256Y-78515642D01*
X102147200Y-78584800D01*
X102118175Y-78648356D01*
X102112143Y-78654834D01*
X101899163Y-78867815D01*
X101707884Y-79059094D01*
X101665393Y-79101585D01*
X101622902Y-79144075D01*
X101555451Y-79245022D01*
X101553804Y-79249629D01*
X101510145Y-79355030D01*
X101510143Y-79355036D01*
X101495712Y-79427584D01*
X101495713Y-79427585D01*
X101486700Y-79472900D01*
X101486700Y-85321477D01*
X101467015Y-85388516D01*
X101414211Y-85434271D01*
X101345053Y-85444215D01*
X101321746Y-85438519D01*
X101231049Y-85406783D01*
X101231041Y-85406781D01*
X101050004Y-85386384D01*
X101049996Y-85386384D01*
X100868958Y-85406781D01*
X100868953Y-85406782D01*
X100696982Y-85466958D01*
X100542718Y-85563889D01*
X100413889Y-85692718D01*
X100316958Y-85846982D01*
X100256782Y-86018953D01*
X100256781Y-86018958D01*
X100236384Y-86199996D01*
X100236384Y-86200003D01*
X100256781Y-86381041D01*
X100256782Y-86381046D01*
X100316958Y-86553017D01*
X100413889Y-86707281D01*
X100443927Y-86737319D01*
X100477412Y-86798642D01*
X100472428Y-86868334D01*
X100443927Y-86912681D01*
X100363889Y-86992718D01*
X100266958Y-87146982D01*
X100206782Y-87318953D01*
X100206781Y-87318958D01*
X100186384Y-87499996D01*
X100186384Y-87500003D01*
X100206781Y-87681041D01*
X100206783Y-87681049D01*
X100238799Y-87772546D01*
X100242360Y-87842325D01*
X100207631Y-87902952D01*
X100145637Y-87935179D01*
X100121757Y-87937500D01*
X99874898Y-87937500D01*
X99727592Y-87966801D01*
X99727586Y-87966803D01*
X99588823Y-88024280D01*
X99588814Y-88024285D01*
X99463935Y-88107727D01*
X99463933Y-88107729D01*
X98457731Y-89113929D01*
X98457728Y-89113932D01*
X98428234Y-89158073D01*
X98428235Y-89158074D01*
X98374281Y-89238822D01*
X98316803Y-89377586D01*
X98316801Y-89377592D01*
X98287500Y-89524897D01*
X98287500Y-90610098D01*
X98280542Y-90651052D01*
X98256782Y-90718955D01*
X98236384Y-90899996D01*
X98236384Y-90900003D01*
X69000000Y-90900003D01*
X69000000Y-88920850D01*
X71341500Y-88920850D01*
X71376182Y-89139824D01*
X71444693Y-89350680D01*
X71527714Y-89513616D01*
X71545343Y-89548215D01*
X71675657Y-89727576D01*
X71832424Y-89884343D01*
X72011785Y-90014657D01*
X72105114Y-90062210D01*
X72209319Y-90115306D01*
X72209321Y-90115306D01*
X72209324Y-90115308D01*
X72420176Y-90183818D01*
X72639149Y-90218500D01*
X72639150Y-90218500D01*
X74660850Y-90218500D01*
X74660851Y-90218500D01*
X74879824Y-90183818D01*
X75090676Y-90115308D01*
X75288215Y-90014657D01*
X75467576Y-89884343D01*
X75624343Y-89727576D01*
X75754657Y-89548215D01*
X75855308Y-89350676D01*
X75923818Y-89139824D01*
X75958500Y-88920851D01*
X75958500Y-88699149D01*
X75923818Y-88480176D01*
X75855308Y-88269324D01*
X75855306Y-88269321D01*
X75855306Y-88269319D01*
X75772970Y-88107727D01*
X75754657Y-88071785D01*
X75624343Y-87892424D01*
X75467576Y-87735657D01*
X75288215Y-87605343D01*
X75090680Y-87504693D01*
X74879824Y-87436182D01*
X74660851Y-87401500D01*
X72639149Y-87401500D01*
X72529662Y-87418841D01*
X72420175Y-87436182D01*
X72209319Y-87504693D01*
X72011784Y-87605343D01*
X71923730Y-87669319D01*
X71832424Y-87735657D01*
X71832422Y-87735659D01*
X71832421Y-87735659D01*
X71675659Y-87892421D01*
X71675659Y-87892422D01*
X71675657Y-87892424D01*
X71651915Y-87925102D01*
X71545343Y-88071784D01*
X71444693Y-88269319D01*
X71376182Y-88480175D01*
X71341500Y-88699149D01*
X71341500Y-88920850D01*
X69000000Y-88920850D01*
X69000000Y-85110850D01*
X71341500Y-85110850D01*
X71376182Y-85329824D01*
X71444693Y-85540680D01*
X71528575Y-85705306D01*
X71545343Y-85738215D01*
X71675657Y-85917576D01*
X71832424Y-86074343D01*
X72011785Y-86204657D01*
X72105114Y-86252210D01*
X72209319Y-86305306D01*
X72209321Y-86305306D01*
X72209324Y-86305308D01*
X72420176Y-86373818D01*
X72639149Y-86408500D01*
X72639150Y-86408500D01*
X74660850Y-86408500D01*
X74660851Y-86408500D01*
X74879824Y-86373818D01*
X75090676Y-86305308D01*
X75288215Y-86204657D01*
X75467576Y-86074343D01*
X75624343Y-85917576D01*
X75754657Y-85738215D01*
X75855308Y-85540676D01*
X75923818Y-85329824D01*
X75958500Y-85110851D01*
X75958500Y-84889149D01*
X75923818Y-84670176D01*
X75855308Y-84459324D01*
X75855306Y-84459321D01*
X75855306Y-84459319D01*
X75802210Y-84355114D01*
X75754657Y-84261785D01*
X75624343Y-84082424D01*
X75467576Y-83925657D01*
X75288215Y-83795343D01*
X75090680Y-83694693D01*
X74879824Y-83626182D01*
X74660851Y-83591500D01*
X72639149Y-83591500D01*
X72529662Y-83608841D01*
X72420175Y-83626182D01*
X72209319Y-83694693D01*
X72011784Y-83795343D01*
X71923730Y-83859319D01*
X71832424Y-83925657D01*
X71832422Y-83925659D01*
X71832421Y-83925659D01*
X71675659Y-84082421D01*
X71675659Y-84082422D01*
X71675657Y-84082424D01*
X71627980Y-84148045D01*
X71545343Y-84261784D01*
X71444693Y-84459319D01*
X71376182Y-84670175D01*
X71341500Y-84889149D01*
X71341500Y-85110850D01*
X69000000Y-85110850D01*
X69000000Y-81300850D01*
X71341500Y-81300850D01*
X71376182Y-81519824D01*
X71444693Y-81730680D01*
X71528575Y-81895306D01*
X71545343Y-81928215D01*
X71675657Y-82107576D01*
X71832424Y-82264343D01*
X72011785Y-82394657D01*
X72105114Y-82442210D01*
X72209319Y-82495306D01*
X72209321Y-82495306D01*
X72209324Y-82495308D01*
X72420176Y-82563818D01*
X72639149Y-82598500D01*
X72639150Y-82598500D01*
X74660850Y-82598500D01*
X74660851Y-82598500D01*
X74879824Y-82563818D01*
X75090676Y-82495308D01*
X75288215Y-82394657D01*
X75467576Y-82264343D01*
X75624343Y-82107576D01*
X75754657Y-81928215D01*
X75855308Y-81730676D01*
X75923818Y-81519824D01*
X75958500Y-81300851D01*
X75958500Y-81079149D01*
X75923818Y-80860176D01*
X75855308Y-80649324D01*
X75855306Y-80649321D01*
X75855306Y-80649319D01*
X75802210Y-80545114D01*
X75754657Y-80451785D01*
X75624343Y-80272424D01*
X75467576Y-80115657D01*
X75288215Y-79985343D01*
X75264426Y-79973222D01*
X75090680Y-79884693D01*
X74879824Y-79816182D01*
X74660851Y-79781500D01*
X72639149Y-79781500D01*
X72529662Y-79798841D01*
X72420175Y-79816182D01*
X72209319Y-79884693D01*
X72011784Y-79985343D01*
X71938179Y-80038821D01*
X71832424Y-80115657D01*
X71832422Y-80115659D01*
X71832421Y-80115659D01*
X71675659Y-80272421D01*
X71675659Y-80272422D01*
X71675657Y-80272424D01*
X71665713Y-80286111D01*
X71545343Y-80451784D01*
X71444693Y-80649319D01*
X71376182Y-80860175D01*
X71341500Y-81079149D01*
X71341500Y-81300850D01*
X69000000Y-81300850D01*
X69000000Y-77490851D01*
X71341500Y-77490851D01*
X71345578Y-77516597D01*
X71376182Y-77709824D01*
X71444693Y-77920680D01*
X71524832Y-78077960D01*
X71545343Y-78118215D01*
X71675657Y-78297576D01*
X71832424Y-78454343D01*
X72011785Y-78584657D01*
X72105114Y-78632210D01*
X72209319Y-78685306D01*
X72209321Y-78685306D01*
X72209324Y-78685308D01*
X72420176Y-78753818D01*
X72639149Y-78788500D01*
X72639150Y-78788500D01*
X74660850Y-78788500D01*
X74660851Y-78788500D01*
X74879824Y-78753818D01*
X75090676Y-78685308D01*
X75288215Y-78584657D01*
X75467576Y-78454343D01*
X75624343Y-78297576D01*
X75754657Y-78118215D01*
X75855308Y-77920676D01*
X75923818Y-77709824D01*
X75958500Y-77490851D01*
X75958500Y-77269149D01*
X75923818Y-77050176D01*
X75855308Y-76839324D01*
X75855306Y-76839321D01*
X75855306Y-76839319D01*
X75771632Y-76675100D01*
X75754657Y-76641785D01*
X75624343Y-76462424D01*
X75467576Y-76305657D01*
X75288215Y-76175343D01*
X75285375Y-76173896D01*
X75090680Y-76074693D01*
X74879824Y-76006182D01*
X74660851Y-75971500D01*
X72639149Y-75971500D01*
X72529662Y-75988841D01*
X72420175Y-76006182D01*
X72209319Y-76074693D01*
X72011784Y-76175343D01*
X71923730Y-76239319D01*
X71832424Y-76305657D01*
X71832422Y-76305659D01*
X71832421Y-76305659D01*
X71675659Y-76462421D01*
X71675659Y-76462422D01*
X71675657Y-76462424D01*
X71653284Y-76493218D01*
X71545343Y-76641784D01*
X71444693Y-76839319D01*
X71376240Y-77049996D01*
X71376182Y-77050176D01*
X71341500Y-77269149D01*
X71341500Y-77490851D01*
X69000000Y-77490851D01*
X69000000Y-73680851D01*
X71341500Y-73680851D01*
X71351206Y-73742134D01*
X71376182Y-73899824D01*
X71444693Y-74110680D01*
X71528575Y-74275306D01*
X71545343Y-74308215D01*
X71675657Y-74487576D01*
X71832424Y-74644343D01*
X72011785Y-74774657D01*
X72072858Y-74805775D01*
X72209319Y-74875306D01*
X72209321Y-74875306D01*
X72209324Y-74875308D01*
X72420176Y-74943818D01*
X72639149Y-74978500D01*
X72639150Y-74978500D01*
X74660850Y-74978500D01*
X74660851Y-74978500D01*
X74879824Y-74943818D01*
X75090676Y-74875308D01*
X75288215Y-74774657D01*
X75467576Y-74644343D01*
X75624343Y-74487576D01*
X75754657Y-74308215D01*
X75855308Y-74110676D01*
X75923818Y-73899824D01*
X75958500Y-73680851D01*
X75958500Y-73459149D01*
X75923818Y-73240176D01*
X75855308Y-73029324D01*
X75855306Y-73029321D01*
X75855306Y-73029319D01*
X75798054Y-72916956D01*
X75754657Y-72831785D01*
X75624343Y-72652424D01*
X75467576Y-72495657D01*
X75288215Y-72365343D01*
X75090680Y-72264693D01*
X74879824Y-72196182D01*
X74741553Y-72174282D01*
X74660851Y-72161500D01*
X72639149Y-72161500D01*
X72558453Y-72174281D01*
X72420175Y-72196182D01*
X72209319Y-72264693D01*
X72011784Y-72365343D01*
X71923730Y-72429319D01*
X71832424Y-72495657D01*
X71832422Y-72495659D01*
X71832421Y-72495659D01*
X71675659Y-72652421D01*
X71675659Y-72652422D01*
X71675657Y-72652424D01*
X71619692Y-72729452D01*
X71545343Y-72831784D01*
X71444693Y-73029319D01*
X71376182Y-73240175D01*
X71370491Y-73276105D01*
X71341500Y-73459149D01*
X71341500Y-73680851D01*
X69000000Y-73680851D01*
X69000000Y-70460537D01*
X71341500Y-70460537D01*
X71341501Y-70460553D01*
X71348986Y-70533817D01*
X71352113Y-70564426D01*
X71407885Y-70732738D01*
X71500970Y-70883652D01*
X71626348Y-71009030D01*
X71777262Y-71102115D01*
X71945574Y-71157887D01*
X72049455Y-71168500D01*
X75250544Y-71168499D01*
X75354426Y-71157887D01*
X75522738Y-71102115D01*
X75673652Y-71009030D01*
X75799030Y-70883652D01*
X75892115Y-70732738D01*
X75947887Y-70564426D01*
X75958500Y-70460545D01*
X75958499Y-69059456D01*
X75947887Y-68955574D01*
X75892115Y-68787262D01*
X75799030Y-68636348D01*
X75673652Y-68510970D01*
X75529061Y-68421785D01*
X75522740Y-68417886D01*
X75522735Y-68417884D01*
X75354427Y-68362113D01*
X75250545Y-68351500D01*
X72049462Y-68351500D01*
X72049446Y-68351501D01*
X71945572Y-68362113D01*
X71777264Y-68417884D01*
X71777259Y-68417886D01*
X71626346Y-68510971D01*
X71500971Y-68636346D01*
X71407886Y-68787259D01*
X71407884Y-68787264D01*
X71352113Y-68955572D01*
X71341500Y-69059447D01*
X71341500Y-70460537D01*
X69000000Y-70460537D01*
X69000000Y-63111571D01*
X100150000Y-63111571D01*
X100177085Y-63282584D01*
X100230591Y-63447257D01*
X100309195Y-63601524D01*
X100410967Y-63741602D01*
X100533397Y-63864032D01*
X100673475Y-63965804D01*
X100827744Y-64044408D01*
X100992415Y-64097914D01*
X100992414Y-64097914D01*
X100999999Y-64099115D01*
X101000000Y-64099114D01*
X101000000Y-63030330D01*
X101019745Y-63050075D01*
X101105255Y-63099444D01*
X101200630Y-63125000D01*
X101299370Y-63125000D01*
X101394745Y-63099444D01*
X101480255Y-63050075D01*
X101500000Y-63030330D01*
X101500000Y-64099115D01*
X101507584Y-64097914D01*
X101672255Y-64044408D01*
X101826524Y-63965804D01*
X101966602Y-63864032D01*
X102089036Y-63741598D01*
X102144427Y-63665357D01*
X102199756Y-63622691D01*
X102269369Y-63616710D01*
X102331165Y-63649315D01*
X102345060Y-63665351D01*
X102368593Y-63697740D01*
X102404483Y-63747139D01*
X102527862Y-63870518D01*
X102527867Y-63870522D01*
X102590240Y-63915838D01*
X102669019Y-63973074D01*
X102770646Y-64024856D01*
X102824483Y-64052288D01*
X102824486Y-64052289D01*
X102907455Y-64079246D01*
X102990426Y-64106205D01*
X103162759Y-64133500D01*
X103162760Y-64133500D01*
X103337240Y-64133500D01*
X103337241Y-64133500D01*
X103509574Y-64106205D01*
X103675516Y-64052288D01*
X103830981Y-63973074D01*
X103972139Y-63870517D01*
X104095517Y-63747139D01*
X104103466Y-63736198D01*
X104149682Y-63672588D01*
X104205011Y-63629922D01*
X104274625Y-63623943D01*
X104336420Y-63656548D01*
X104350318Y-63672588D01*
X104404477Y-63747132D01*
X104404481Y-63747137D01*
X104527862Y-63870518D01*
X104527867Y-63870522D01*
X104590240Y-63915838D01*
X104669019Y-63973074D01*
X104770646Y-64024856D01*
X104824483Y-64052288D01*
X104824486Y-64052289D01*
X104907455Y-64079246D01*
X104990426Y-64106205D01*
X105162759Y-64133500D01*
X105162760Y-64133500D01*
X105337240Y-64133500D01*
X105337241Y-64133500D01*
X105509574Y-64106205D01*
X105675516Y-64052288D01*
X105830981Y-63973074D01*
X105972139Y-63870517D01*
X106072975Y-63769680D01*
X106134294Y-63736198D01*
X106203986Y-63741182D01*
X106259920Y-63783053D01*
X106266184Y-63792255D01*
X106300970Y-63848652D01*
X106426348Y-63974030D01*
X106577262Y-64067115D01*
X106745574Y-64122887D01*
X106849455Y-64133500D01*
X107650544Y-64133499D01*
X107754426Y-64122887D01*
X107922738Y-64067115D01*
X108073652Y-63974030D01*
X108199030Y-63848652D01*
X108292115Y-63697738D01*
X108347887Y-63529426D01*
X108358500Y-63425545D01*
X108358821Y-63422404D01*
X108359754Y-63422499D01*
X108381546Y-63360229D01*
X108436614Y-63317226D01*
X108482307Y-63308500D01*
X120678800Y-63308500D01*
X120745839Y-63328185D01*
X120766481Y-63344819D01*
X121301181Y-63879519D01*
X121334666Y-63940842D01*
X121337500Y-63967200D01*
X121337500Y-64428566D01*
X121319643Y-64490547D01*
X121319979Y-64490709D01*
X121319029Y-64492680D01*
X121318495Y-64494536D01*
X121316958Y-64496981D01*
X121256782Y-64668953D01*
X121256781Y-64668958D01*
X121236384Y-64849996D01*
X121236384Y-64850003D01*
X121256781Y-65031041D01*
X121256782Y-65031046D01*
X121297949Y-65148693D01*
X121316957Y-65203015D01*
X121413889Y-65357281D01*
X121542719Y-65486111D01*
X121696985Y-65583043D01*
X121868953Y-65643217D01*
X121868958Y-65643218D01*
X122049996Y-65663616D01*
X122050000Y-65663616D01*
X122050004Y-65663616D01*
X122231041Y-65643218D01*
X122231044Y-65643217D01*
X122231047Y-65643217D01*
X122403015Y-65583043D01*
X122557281Y-65486111D01*
X122686111Y-65357281D01*
X122783043Y-65203015D01*
X122843217Y-65031047D01*
X122857967Y-64900133D01*
X122859566Y-64889846D01*
X122862500Y-64875100D01*
X122862500Y-64866867D01*
X122863280Y-64852980D01*
X122863616Y-64850000D01*
X122863279Y-64847017D01*
X122862500Y-64833133D01*
X122862500Y-63524897D01*
X122833198Y-63377592D01*
X122833197Y-63377591D01*
X122833197Y-63377587D01*
X122775718Y-63238821D01*
X122764290Y-63221718D01*
X122692273Y-63113935D01*
X122692271Y-63113933D01*
X122692269Y-63113930D01*
X121532069Y-61953730D01*
X121442704Y-61894019D01*
X121407179Y-61870282D01*
X121406684Y-61870077D01*
X121268413Y-61812803D01*
X121268407Y-61812801D01*
X121121102Y-61783500D01*
X121121100Y-61783500D01*
X108349749Y-61783500D01*
X108282710Y-61763815D01*
X108244210Y-61724597D01*
X108199030Y-61651348D01*
X108073652Y-61525970D01*
X107922738Y-61432885D01*
X107922735Y-61432884D01*
X107754427Y-61377113D01*
X107650546Y-61366500D01*
X106849462Y-61366500D01*
X106849446Y-61366501D01*
X106745572Y-61377113D01*
X106577264Y-61432884D01*
X106577259Y-61432886D01*
X106426346Y-61525971D01*
X106300970Y-61651347D01*
X106300967Y-61651351D01*
X106266191Y-61707732D01*
X106214243Y-61754457D01*
X106145280Y-61765678D01*
X106081198Y-61737835D01*
X106072972Y-61730316D01*
X105972137Y-61629481D01*
X105972132Y-61629477D01*
X105830984Y-61526928D01*
X105830983Y-61526927D01*
X105830981Y-61526926D01*
X105781175Y-61501548D01*
X105675516Y-61447711D01*
X105675513Y-61447710D01*
X105509575Y-61393795D01*
X105423407Y-61380147D01*
X105337241Y-61366500D01*
X105162759Y-61366500D01*
X105105314Y-61375598D01*
X104990424Y-61393795D01*
X104824486Y-61447710D01*
X104824483Y-61447711D01*
X104669015Y-61526928D01*
X104527867Y-61629477D01*
X104527862Y-61629481D01*
X104404481Y-61752862D01*
X104350318Y-61827412D01*
X104294988Y-61870077D01*
X104225375Y-61876056D01*
X104163580Y-61843450D01*
X104149682Y-61827412D01*
X104095518Y-61752862D01*
X103972137Y-61629481D01*
X103972132Y-61629477D01*
X103830984Y-61526928D01*
X103830983Y-61526927D01*
X103830981Y-61526926D01*
X103781175Y-61501548D01*
X103675516Y-61447711D01*
X103675513Y-61447710D01*
X103509575Y-61393795D01*
X103423407Y-61380147D01*
X103337241Y-61366500D01*
X103162759Y-61366500D01*
X103105314Y-61375598D01*
X102990424Y-61393795D01*
X102824486Y-61447710D01*
X102824483Y-61447711D01*
X102669015Y-61526928D01*
X102527867Y-61629477D01*
X102527862Y-61629481D01*
X102404481Y-61752862D01*
X102345064Y-61834643D01*
X102289734Y-61877308D01*
X102220120Y-61883287D01*
X102158325Y-61850681D01*
X102144428Y-61834642D01*
X102089038Y-61758403D01*
X101966602Y-61635967D01*
X101826524Y-61534195D01*
X101672257Y-61455591D01*
X101507589Y-61402087D01*
X101507581Y-61402085D01*
X101500000Y-61400884D01*
X101500000Y-62469670D01*
X101480255Y-62449925D01*
X101394745Y-62400556D01*
X101299370Y-62375000D01*
X101200630Y-62375000D01*
X101105255Y-62400556D01*
X101019745Y-62449925D01*
X101000000Y-62469670D01*
X101000000Y-61400884D01*
X100999999Y-61400884D01*
X100992418Y-61402085D01*
X100992410Y-61402087D01*
X100827742Y-61455591D01*
X100673475Y-61534195D01*
X100533397Y-61635967D01*
X100410967Y-61758397D01*
X100309195Y-61898475D01*
X100230591Y-62052742D01*
X100177085Y-62217415D01*
X100150000Y-62388428D01*
X100150000Y-62500000D01*
X100969670Y-62500000D01*
X100949925Y-62519745D01*
X100900556Y-62605255D01*
X100875000Y-62700630D01*
X100875000Y-62799370D01*
X100900556Y-62894745D01*
X100949925Y-62980255D01*
X100969670Y-63000000D01*
X100150000Y-63000000D01*
X100150000Y-63111571D01*
X69000000Y-63111571D01*
X69000000Y-61121288D01*
X71149500Y-61121288D01*
X71181161Y-61361785D01*
X71243947Y-61596104D01*
X71314187Y-61765678D01*
X71336776Y-61820212D01*
X71458064Y-62030289D01*
X71458066Y-62030292D01*
X71458067Y-62030293D01*
X71605733Y-62222736D01*
X71605739Y-62222743D01*
X71777256Y-62394260D01*
X71777263Y-62394266D01*
X71849800Y-62449925D01*
X71969711Y-62541936D01*
X72179788Y-62663224D01*
X72403900Y-62756054D01*
X72638211Y-62818838D01*
X72818586Y-62842584D01*
X72878711Y-62850500D01*
X72878712Y-62850500D01*
X73121289Y-62850500D01*
X73169388Y-62844167D01*
X73361789Y-62818838D01*
X73596100Y-62756054D01*
X73820212Y-62663224D01*
X74030289Y-62541936D01*
X74222738Y-62394265D01*
X74394265Y-62222738D01*
X74541936Y-62030289D01*
X74663224Y-61820212D01*
X74756054Y-61596100D01*
X74818838Y-61361789D01*
X74850500Y-61121288D01*
X137199500Y-61121288D01*
X137231161Y-61361785D01*
X137293947Y-61596104D01*
X137364187Y-61765678D01*
X137386776Y-61820212D01*
X137508064Y-62030289D01*
X137508066Y-62030292D01*
X137508067Y-62030293D01*
X137655733Y-62222736D01*
X137655739Y-62222743D01*
X137827256Y-62394260D01*
X137827263Y-62394266D01*
X137899800Y-62449925D01*
X138019711Y-62541936D01*
X138229788Y-62663224D01*
X138453900Y-62756054D01*
X138688211Y-62818838D01*
X138868586Y-62842584D01*
X138928711Y-62850500D01*
X138928712Y-62850500D01*
X139171289Y-62850500D01*
X139219388Y-62844167D01*
X139411789Y-62818838D01*
X139646100Y-62756054D01*
X139870212Y-62663224D01*
X140080289Y-62541936D01*
X140272738Y-62394265D01*
X140444265Y-62222738D01*
X140591936Y-62030289D01*
X140713224Y-61820212D01*
X140806054Y-61596100D01*
X140868838Y-61361789D01*
X140900500Y-61121288D01*
X140900500Y-60878712D01*
X140868838Y-60638211D01*
X140806054Y-60403900D01*
X140713224Y-60179788D01*
X140591936Y-59969711D01*
X140444265Y-59777262D01*
X140444260Y-59777256D01*
X140272743Y-59605739D01*
X140272736Y-59605733D01*
X140080293Y-59458067D01*
X140080292Y-59458066D01*
X140080289Y-59458064D01*
X139870212Y-59336776D01*
X139870205Y-59336773D01*
X139646104Y-59243947D01*
X139411785Y-59181161D01*
X139171289Y-59149500D01*
X139171288Y-59149500D01*
X138928712Y-59149500D01*
X138928711Y-59149500D01*
X138688214Y-59181161D01*
X138453895Y-59243947D01*
X138229794Y-59336773D01*
X138229785Y-59336777D01*
X138019706Y-59458067D01*
X137827263Y-59605733D01*
X137827256Y-59605739D01*
X137655739Y-59777256D01*
X137655733Y-59777263D01*
X137508067Y-59969706D01*
X137386777Y-60179785D01*
X137386773Y-60179794D01*
X137293947Y-60403895D01*
X137231161Y-60638214D01*
X137199500Y-60878711D01*
X137199500Y-61121288D01*
X74850500Y-61121288D01*
X74850500Y-60878712D01*
X74818838Y-60638211D01*
X74756054Y-60403900D01*
X74663224Y-60179788D01*
X74541936Y-59969711D01*
X74394265Y-59777262D01*
X74394260Y-59777256D01*
X74222743Y-59605739D01*
X74222736Y-59605733D01*
X74030293Y-59458067D01*
X74030292Y-59458066D01*
X74030289Y-59458064D01*
X73820212Y-59336776D01*
X73820205Y-59336773D01*
X73596104Y-59243947D01*
X73361785Y-59181161D01*
X73121289Y-59149500D01*
X73121288Y-59149500D01*
X72878712Y-59149500D01*
X72878711Y-59149500D01*
X72638214Y-59181161D01*
X72403895Y-59243947D01*
X72179794Y-59336773D01*
X72179785Y-59336777D01*
X71969706Y-59458067D01*
X71777263Y-59605733D01*
X71777256Y-59605739D01*
X71605739Y-59777256D01*
X71605733Y-59777263D01*
X71458067Y-59969706D01*
X71336777Y-60179785D01*
X71336773Y-60179794D01*
X71243947Y-60403895D01*
X71181161Y-60638214D01*
X71149500Y-60878711D01*
X71149500Y-61121288D01*
X69000000Y-61121288D01*
X69000000Y-61000787D01*
X69000009Y-60999267D01*
X69000039Y-60996784D01*
X69002343Y-60808922D01*
X69002930Y-60798320D01*
X69040312Y-60418772D01*
X69042097Y-60406744D01*
X69087241Y-60179794D01*
X69116346Y-60033468D01*
X69119301Y-60021670D01*
X69135065Y-59969706D01*
X69229787Y-59657447D01*
X69233885Y-59645997D01*
X69379535Y-59294363D01*
X69384730Y-59283380D01*
X69564152Y-58947708D01*
X69570390Y-58937300D01*
X69781852Y-58620825D01*
X69789091Y-58611064D01*
X70030555Y-58316838D01*
X70038707Y-58307844D01*
X70307844Y-58038707D01*
X70316838Y-58030555D01*
X70611064Y-57789091D01*
X70620825Y-57781852D01*
X70937300Y-57570390D01*
X70947708Y-57564152D01*
X71283380Y-57384730D01*
X71294363Y-57379535D01*
X71646004Y-57233882D01*
X71657447Y-57229787D01*
X72021677Y-57119299D01*
X72033468Y-57116346D01*
X72406753Y-57042095D01*
X72418772Y-57040312D01*
X72798320Y-57002930D01*
X72808922Y-57002343D01*
X72996784Y-57000039D01*
X72999267Y-57000009D01*
X73000787Y-57000000D01*
X139049213Y-57000000D01*
X139050733Y-57000008D01*
G37*
G04 #@! TD.AperFunction*
G04 #@! TA.AperFunction,NonConductor*
G36*
X105562965Y-74979785D02*
G01*
X105583607Y-74996419D01*
X105750381Y-75163193D01*
X105783866Y-75224516D01*
X105786700Y-75250874D01*
X105786700Y-77428916D01*
X105767015Y-77495955D01*
X105750381Y-77516597D01*
X105366597Y-77900381D01*
X105305274Y-77933866D01*
X105278916Y-77936700D01*
X103998648Y-77936700D01*
X103931609Y-77917015D01*
X103885854Y-77864211D01*
X103875428Y-77798817D01*
X103888741Y-77680656D01*
X103888741Y-77680649D01*
X103868343Y-77499611D01*
X103868342Y-77499606D01*
X103867064Y-77495955D01*
X103808168Y-77327638D01*
X103711236Y-77173372D01*
X103582406Y-77044542D01*
X103428140Y-76947610D01*
X103373818Y-76928602D01*
X103256171Y-76887435D01*
X103256166Y-76887434D01*
X103075129Y-76867037D01*
X103075121Y-76867037D01*
X102894086Y-76887434D01*
X102894077Y-76887436D01*
X102826177Y-76911195D01*
X102785224Y-76918153D01*
X100797853Y-76918153D01*
X100730814Y-76898468D01*
X100710172Y-76881834D01*
X100148819Y-76320481D01*
X100115334Y-76259158D01*
X100112500Y-76232800D01*
X100112500Y-75524674D01*
X100132185Y-75457635D01*
X100184989Y-75411880D01*
X100254147Y-75401936D01*
X100317703Y-75430961D01*
X100324181Y-75436993D01*
X100976103Y-76088915D01*
X100976104Y-76088916D01*
X101061084Y-76173896D01*
X101061085Y-76173897D01*
X101161004Y-76240661D01*
X101161005Y-76240661D01*
X101161009Y-76240664D01*
X101235455Y-76271500D01*
X101272040Y-76286654D01*
X101272044Y-76286654D01*
X101272045Y-76286655D01*
X101389907Y-76310100D01*
X101389910Y-76310100D01*
X101510090Y-76310100D01*
X102916713Y-76310100D01*
X102983752Y-76329785D01*
X102991534Y-76335366D01*
X102992717Y-76336109D01*
X102992719Y-76336111D01*
X103146985Y-76433043D01*
X103318953Y-76493217D01*
X103318958Y-76493218D01*
X103499996Y-76513616D01*
X103500000Y-76513616D01*
X103500004Y-76513616D01*
X103681041Y-76493218D01*
X103681044Y-76493217D01*
X103681047Y-76493217D01*
X103853015Y-76433043D01*
X104007281Y-76336111D01*
X104136111Y-76207281D01*
X104233043Y-76053015D01*
X104293217Y-75881047D01*
X104293218Y-75881041D01*
X104313616Y-75700003D01*
X104313616Y-75699996D01*
X104293218Y-75518958D01*
X104293217Y-75518953D01*
X104262427Y-75430961D01*
X104233043Y-75346985D01*
X104233041Y-75346982D01*
X104233041Y-75346981D01*
X104209215Y-75309063D01*
X104190214Y-75241827D01*
X104210581Y-75174991D01*
X104263848Y-75129777D01*
X104273250Y-75126049D01*
X104403015Y-75080643D01*
X104557281Y-74983711D01*
X104557281Y-74983710D01*
X104563177Y-74980006D01*
X104564663Y-74982372D01*
X104617675Y-74960742D01*
X104630278Y-74960100D01*
X105495926Y-74960100D01*
X105562965Y-74979785D01*
G37*
G04 #@! TD.AperFunction*
G04 #@! TA.AperFunction,NonConductor*
G36*
X107526771Y-78109822D02*
G01*
X107574383Y-78160958D01*
X107587500Y-78216465D01*
X107587500Y-78763500D01*
X107567815Y-78830539D01*
X107515011Y-78876294D01*
X107463500Y-78887500D01*
X106974674Y-78887500D01*
X106907635Y-78867815D01*
X106861880Y-78815011D01*
X106851936Y-78745853D01*
X106880961Y-78682297D01*
X106886993Y-78675819D01*
X107273894Y-78288918D01*
X107273896Y-78288916D01*
X107294681Y-78257809D01*
X107340664Y-78188991D01*
X107348938Y-78169014D01*
X107392777Y-78114611D01*
X107459071Y-78092544D01*
X107526771Y-78109822D01*
G37*
G04 #@! TD.AperFunction*
G04 #@! TA.AperFunction,NonConductor*
G36*
X104312417Y-85341306D02*
G01*
X104379471Y-85383438D01*
X104425763Y-85435772D01*
X104437500Y-85488432D01*
X104437500Y-87482799D01*
X104417815Y-87549838D01*
X104401181Y-87570480D01*
X104113803Y-87857857D01*
X104052480Y-87891342D01*
X104012239Y-87893396D01*
X103950003Y-87886384D01*
X103949996Y-87886384D01*
X103768961Y-87906781D01*
X103768952Y-87906783D01*
X103701052Y-87930542D01*
X103660099Y-87937500D01*
X102524674Y-87937500D01*
X102457635Y-87917815D01*
X102411880Y-87865011D01*
X102401936Y-87795853D01*
X102430961Y-87732297D01*
X102436993Y-87725819D01*
X102973896Y-87188916D01*
X102983675Y-87174281D01*
X103040664Y-87088991D01*
X103086654Y-86977960D01*
X103101228Y-86904692D01*
X103110100Y-86860092D01*
X103110100Y-86507093D01*
X103129785Y-86440054D01*
X103182589Y-86394299D01*
X103220217Y-86383873D01*
X103355645Y-86368614D01*
X103355648Y-86368613D01*
X103355651Y-86368613D01*
X103527619Y-86308439D01*
X103681885Y-86211507D01*
X103810715Y-86082677D01*
X103907647Y-85928411D01*
X103967821Y-85756443D01*
X103984923Y-85604657D01*
X103988220Y-85575399D01*
X103988220Y-85575393D01*
X103975239Y-85460184D01*
X103987293Y-85391362D01*
X104034642Y-85339982D01*
X104098459Y-85322300D01*
X104246446Y-85322300D01*
X104312417Y-85341306D01*
G37*
G04 #@! TD.AperFunction*
M02*
